<svg version="1.1" xmlns="http://www.w3.org/2000/svg" xmlns:xlink="http://www.w3.org/1999/xlink" x="0px" y="0px" viewBox="0 0 90 30" style="enable-background:new 0 0 90 30;" xml:space="preserve">
    <style type="text/css">
        .st0{fill:#A7A6A6;}
        .st1{fill:#FFFFFF;}
    </style>
    <path d="M86.3,0H3.7C1.7,0,0,1.7,0,3.7v22.6c0,2,1.6,3.7,3.7,3.7h82.7c2,0,3.7-1.7,3.6-3.8V3.7C90,1.7,88.4,0,86.3,0z"/>
    <path class="st0" d="M86.4,0H3.7C1.7,0,0,1.7,0,3.8v22.5C0,28.4,1.7,30,3.7,30h82.6c2.1,0,3.7-1.7,3.7-3.7V3.8
        C90.1,1.7,88.4,0,86.4,0z M89.5,26.3c0,1.7-1.4,3.2-3.1,3.2H3.7c-1.7,0-3.1-1.4-3.1-3.2V3.8c0-1.7,1.4-3.2,3.1-3.2h82.7
        c1.7,0,3.1,1.4,3.1,3.2C89.5,3.8,89.5,26.3,89.5,26.3z"/>
    <path class="st1" d="M18.6,15.2c0-2.1,1.7-3.1,1.8-3.1c-1-1.4-2.4-1.6-3-1.6c-1.3-0.1-2.5,0.7-3.1,0.7s-1.6-0.7-2.7-0.7
        c-1.3,0-2.7,0.8-3.3,2.1c-1.4,2.5-0.4,6.2,1,8.3c0.7,1,1.5,2.1,2.6,2.1s1.4-0.6,2.7-0.6s1.6,0.6,2.7,0.6s1.8-1,2.5-2
        c0.8-1.2,1.2-2.2,1.2-2.3C20.8,18.4,18.6,17.6,18.6,15.2z M16.5,9.1c0.5-0.7,0.9-1.6,0.8-2.6c-0.8,0-1.8,0.5-2.4,1.3
        c-0.5,0.6-1,1.6-0.9,2.5C15,10.3,16,9.8,16.5,9.1z"/>
    <path class="st1" d="M26.4,10.3c0.3,0.2,0.7,0.3,1.1,0.3c0.6,0,1-0.3,1-0.8c0-0.4-0.3-0.7-0.9-0.9c-0.8-0.3-1.2-0.7-1.2-1.3
        c0-0.7,0.6-1.3,1.5-1.3c0.5,0,0.8,0.1,1,0.2L28.8,7c-0.2-0.1-0.5-0.2-0.9-0.2c-0.6,0-0.9,0.4-0.9,0.7c0,0.4,0.3,0.7,0.9,0.9
        c0.8,0.3,1.2,0.7,1.2,1.4c0,0.7-0.5,1.4-1.7,1.4c-0.5,0-1-0.1-1.2-0.3L26.4,10.3z"/>
    <path class="st1" d="M32.4,10.9c-0.2,0.1-0.5,0.2-1,0.2c-1,0-1.7-0.7-1.7-1.7c0-1,0.7-1.8,1.8-1.8c0.4,0,0.7,0.1,0.9,0.2l-0.1,0.5
        c-0.1-0.1-0.4-0.2-0.7-0.2c-0.8,0-1.2,0.6-1.2,1.3c0,0.8,0.5,1.3,1.2,1.3c0.4,0,0.6-0.1,0.8-0.2L32.4,10.9z"/>
    <path class="st1" d="M35,11.1l0-0.4h0c-0.2,0.3-0.6,0.5-1,0.5c-0.7,0-1-0.5-1-1c0-0.8,0.7-1.3,2-1.3V8.8c0-0.3-0.1-0.8-0.8-0.8
        c-0.3,0-0.6,0.1-0.9,0.3l-0.1-0.4c0.3-0.2,0.7-0.3,1.1-0.3c1,0,1.3,0.7,1.3,1.4v1.3c0,0.3,0,0.6,0.1,0.8H35z M34.9,9.3
        c-0.7,0-1.4,0.1-1.4,0.8c0,0.4,0.3,0.6,0.6,0.6c0.4,0,0.7-0.3,0.8-0.6c0-0.1,0-0.1,0-0.2V9.3z"/>
    <path class="st1" d="M36.5,8.7c0-0.4,0-0.7,0-1.1H37l0,0.7h0c0.2-0.5,0.5-0.7,0.9-0.7c0.1,0,0.1,0,0.2,0v0.6c-0.1,0-0.1,0-0.2,0
        c-0.4,0-0.7,0.3-0.8,0.8c0,0.1,0,0.2,0,0.3v1.8h-0.6V8.7z"/>
    <path class="st1" d="M39.5,6.7c0,0.2-0.1,0.4-0.4,0.4c-0.2,0-0.4-0.2-0.4-0.4c0-0.2,0.2-0.4,0.4-0.4C39.4,6.3,39.5,6.5,39.5,6.7z
         M38.8,11.1V7.7h0.6v3.4H38.8z"/>
    <path class="st1" d="M42.9,10.9c-0.2,0.1-0.5,0.2-1,0.2c-1,0-1.7-0.7-1.7-1.7c0-1,0.7-1.8,1.8-1.8c0.4,0,0.7,0.1,0.9,0.2l-0.1,0.5
        c-0.1-0.1-0.4-0.2-0.7-0.2c-0.8,0-1.2,0.6-1.2,1.3c0,0.8,0.5,1.3,1.2,1.3c0.4,0,0.6-0.1,0.8-0.2L42.9,10.9z"/>
    <path class="st1" d="M45.5,11.1l0-0.4h0c-0.2,0.3-0.6,0.5-1,0.5c-0.7,0-1-0.5-1-1c0-0.8,0.7-1.3,2-1.3V8.8c0-0.3-0.1-0.8-0.8-0.8
        c-0.3,0-0.6,0.1-0.9,0.3l-0.1-0.4c0.3-0.2,0.7-0.3,1.1-0.3c1,0,1.3,0.7,1.3,1.4v1.3c0,0.3,0,0.6,0.1,0.8H45.5z M45.4,9.3
        c-0.7,0-1.4,0.1-1.4,0.8c0,0.4,0.3,0.6,0.6,0.6c0.4,0,0.7-0.3,0.8-0.6c0-0.1,0-0.1,0-0.2V9.3z"/>
    <path class="st1" d="M48.4,10.4c0.2,0.1,0.5,0.2,0.8,0.2c0.4,0,0.7-0.2,0.7-0.5c0-0.3-0.2-0.5-0.6-0.6c-0.6-0.2-0.9-0.6-0.9-1
        c0-0.5,0.4-1,1.2-1c0.3,0,0.6,0.1,0.8,0.2l-0.2,0.4c-0.1-0.1-0.4-0.2-0.7-0.2c-0.4,0-0.6,0.2-0.6,0.5c0,0.3,0.2,0.4,0.6,0.6
        c0.6,0.2,0.9,0.5,0.9,1c0,0.6-0.5,1-1.3,1c-0.4,0-0.7-0.1-1-0.2L48.4,10.4z"/>
    <path class="st1" d="M54.1,10.1c0,0.4,0,0.7,0,0.9h-0.5l0-0.6h0c-0.2,0.3-0.5,0.6-1.1,0.6c-0.5,0-1.2-0.3-1.2-1.5v-2h0.6v1.9
        c0,0.6,0.2,1.1,0.8,1.1c0.4,0,0.7-0.3,0.8-0.6c0-0.1,0.1-0.2,0.1-0.3V7.7h0.6V10.1z"/>
    <path class="st1" d="M33.9,22.7h-1.6L31.4,20h-3l-0.8,2.8H26l3-9.4h1.9L33.9,22.7z M31.2,18.8l-0.8-2.4c-0.1-0.3-0.2-0.8-0.5-1.8
        l0,0c-0.1,0.4-0.2,1-0.4,1.8l-0.8,2.4H31.2z M41.7,19.3c0,1.2-0.3,2.1-0.9,2.7c-0.6,0.6-1.2,0.9-2.1,0.9c-0.9,0-1.5-0.3-1.9-1l0,0
        v3.6h-1.5v-7.3c0-0.7,0-1.5-0.1-2.2h1.3l0.1,1.1l0,0c0.5-0.8,1.3-1.2,2.3-1.2c0.8,0,1.5,0.3,2,0.9C41.4,17.4,41.7,18.2,41.7,19.3z
         M40.2,19.3c0-0.7-0.1-1.2-0.4-1.6C39.5,17.3,39,17,38.5,17c-0.4,0-0.7,0.1-1,0.4c-0.3,0.2-0.5,0.6-0.6,1c0,0.2-0.1,0.3-0.1,0.5V20
        c0,0.5,0.2,0.9,0.5,1.2c0.3,0.3,0.7,0.5,1.2,0.5c0.6,0,1-0.2,1.3-0.7C40,20.6,40.2,20,40.2,19.3z M49.5,19.3c0,1.2-0.3,2.1-0.9,2.7
        c-0.6,0.6-1.2,0.9-2.1,0.9c-0.9,0-1.5-0.3-1.9-1l0,0v3.6H43v-7.3c0-0.7,0-1.5-0.1-2.2h1.3l0.1,1.1l0,0c0.5-0.8,1.3-1.2,2.3-1.2
        c0.8,0,1.5,0.3,2,0.9C49.2,17.4,49.5,18.2,49.5,19.3z M47.9,19.3c0-0.7-0.1-1.2-0.4-1.6c-0.3-0.4-0.8-0.7-1.3-0.7
        c-0.4,0-0.7,0.1-1,0.4c-0.3,0.2-0.5,0.6-0.6,1c0,0.2-0.1,0.3-0.1,0.5V20c0,0.5,0.2,0.9,0.5,1.2c0.3,0.3,0.7,0.5,1.2,0.5
        c0.6,0,1-0.2,1.3-0.7C47.8,20.6,47.9,20,47.9,19.3z M58.2,20.1c0,0.8-0.3,1.4-0.8,1.9c-0.6,0.5-1.5,0.8-2.6,0.8
        c-1,0-1.8-0.2-2.4-0.6l0.3-1.3c0.7,0.4,1.4,0.6,2.2,0.6c0.6,0,1-0.1,1.3-0.4s0.5-0.6,0.5-1s-0.1-0.7-0.4-1C56,19,55.6,18.8,55,18.5
        c-1.6-0.6-2.5-1.5-2.5-2.7c0-0.8,0.3-1.4,0.9-1.9c0.6-0.5,1.3-0.7,2.3-0.7c0.9,0,1.6,0.1,2.1,0.4l-0.4,1.2c-0.5-0.3-1.1-0.4-1.8-0.4
        c-0.5,0-0.9,0.1-1.2,0.4C54.1,15,54,15.3,54,15.6c0,0.4,0.1,0.7,0.4,0.9c0.3,0.2,0.7,0.5,1.4,0.7c0.8,0.3,1.4,0.7,1.8,1.1
        C58,18.9,58.2,19.4,58.2,20.1z M63.1,17.1h-1.7v3.3c0,0.8,0.3,1.3,0.9,1.3c0.3,0,0.5,0,0.7-0.1v1.1c-0.3,0.1-0.7,0.2-1.2,0.2
        c-0.6,0-1.1-0.2-1.4-0.5c-0.3-0.4-0.5-1-0.5-1.8v-3.4h-1V16h1v-1.2l1.5-0.4V16h1.7V17.1z M70.6,19.3c0,1-0.3,1.9-0.9,2.6
        s-1.4,1-2.5,1c-1,0-1.8-0.3-2.4-1S64,20.4,64,19.4s0.3-1.9,0.9-2.6s1.4-1,2.5-1c1,0,1.8,0.3,2.4,1C70.3,17.5,70.6,18.3,70.6,19.3z
         M69,19.3c0-0.6-0.1-1.2-0.4-1.6c-0.3-0.5-0.8-0.8-1.3-0.8c-0.6,0-1.1,0.3-1.4,0.8c-0.3,0.4-0.4,1-0.4,1.6s0.1,1.2,0.4,1.6
        c0.3,0.5,0.8,0.8,1.4,0.8s1-0.3,1.3-0.8C68.9,20.5,69,20,69,19.3z M75.5,17.3c-0.1,0-0.3,0-0.5,0c-0.5,0-0.9,0.2-1.2,0.6
        c-0.3,0.4-0.4,0.8-0.4,1.3v3.5h-1.5v-4.6c0-0.8,0-1.5-0.1-2.1h1.3l0.1,1.3l0,0c0.2-0.4,0.4-0.8,0.8-1.1c0.3-0.2,0.7-0.4,1.1-0.4
        c0.1,0,0.3,0,0.4,0C75.5,15.9,75.5,17.3,75.5,17.3z M82.2,19c0,0.3,0,0.5-0.1,0.7h-4.5c0,0.7,0.2,1.2,0.7,1.5
        c0.4,0.3,0.9,0.5,1.5,0.5c0.7,0,1.3-0.1,1.8-0.3l0.2,1c-0.6,0.3-1.4,0.4-2.3,0.4c-1,0-1.9-0.3-2.5-0.9s-0.9-1.4-0.9-2.5
        c0-1,0.3-1.9,0.8-2.5c0.6-0.7,1.4-1.1,2.4-1.1s1.7,0.4,2.2,1.1C82,17.5,82.2,18.2,82.2,19z M80.8,18.6c0-0.4-0.1-0.8-0.3-1.2
        c-0.3-0.4-0.7-0.6-1.2-0.6s-0.9,0.2-1.2,0.6c-0.3,0.3-0.4,0.7-0.4,1.2H80.8L80.8,18.6z"/>
</svg>
