<svg version="1.1" xmlns="http://www.w3.org/2000/svg" xmlns:xlink="http://www.w3.org/1999/xlink" x="0px" y="0px" viewBox="0 0 30 30" style="enable-background:new 0 0 30 30;" xml:space="preserve">
    <path fill="#FFFFFF" d="M22,30H8c-3.3,0-6-2.7-6-6V11c0-3.3,2.7-6,6-6h14c3.3,0,6,2.7,6,6v13
        C28,27.3,25.3,30,22,30z M8,7c-2.2,0-4,1.8-4,4v13c0,2.2,1.8,4,4,4h14c2.2,0,4-1.8,4-4V11c0-2.2-1.8-4-4-4H8z M28,13H2.2v2H28V13z
         M10.5,5.5v-4c0-0.6-0.4-1-1-1s-1,0.4-1,1v4c0,0.6,0.4,1,1,1S10.5,6.1,10.5,5.5z M21.5,5.5v-4c0-0.6-0.4-1-1-1s-1,0.4-1,1v4
        c0,0.6,0.4,1,1,1S21.5,6.1,21.5,5.5z"/>
</svg>