<svg version="1.1" xmlns="http://www.w3.org/2000/svg" xmlns:xlink="http://www.w3.org/1999/xlink" x="0px" y="0px" viewBox="0 0 101.1 30" style="enable-background:new 0 0 101.1 30;" xml:space="preserve">
    <defs>
        <linearGradient id="gp_logo_gradient_1" gradientUnits="userSpaceOnUse" x1="-553.2371" y1="229.1826" x2="-555.6074" y2="229.1826" gradientTransform="matrix(7.65 0 0 -6.4 4255.564 1481.7684)">
            <stop  offset="0" style="stop-color:#FEE000"/>
            <stop  offset="0.1941" style="stop-color:#FCCF0B"/>
            <stop  offset="0.5469" style="stop-color:#FAB318"/>
            <stop  offset="0.8279" style="stop-color:#F9A21B"/>
            <stop  offset="1" style="stop-color:#F99B1C"/>
        </linearGradient>
        <linearGradient id="gp_logo_gradient_2" gradientUnits="userSpaceOnUse" x1="-585.5052" y1="237.1759" x2="-586.8696" y2="235.3994" gradientTransform="matrix(12.5 0 0 -9.6 7337.4009 2293.6038)">
            <stop  offset="0" style="stop-color:#EF4547"/>
            <stop  offset="1" style="stop-color:#C6186D"/>
        </linearGradient>
        <linearGradient id="gp_logo_gradient_3" gradientUnits="userSpaceOnUse" x1="-586.8732" y1="238.2585" x2="-585.7592" y2="236.8025" gradientTransform="matrix(12.5 0 0 -9.5638 7337.4009 2274.7986)">
            <stop  offset="0" style="stop-color:#279E6F"/>
            <stop  offset="0.3168" style="stop-color:#4DAB6D"/>
            <stop  offset="0.7398" style="stop-color:#6ABA6A"/>
            <stop  offset="1" style="stop-color:#74C169"/>
        </linearGradient>
    </defs>
    <style type="text/css">
        .st0{fill:#A7A6A6;}
        .st1{fill:#FFFFFF;}
        .st2{fill:#5BC9F4;}
        .st3{fill:url(#gp_logo_gradient_1);}
        .st4{fill:url(#gp_logo_gradient_2);}
        .st5{fill:url(#gp_logo_gradient_3);}
        .st6{fill:#FFFFFF;stroke:#FFFFFF;stroke-width:0.2;}
    </style>
    <path d="M97.5,30H3.7C1.6,30,0,28.3,0,26.3V3.7C0,1.7,1.7,0,3.7,0h93.7c2.1,0,3.7,1.7,3.7,3.7v22.5
        C101.2,28.3,99.5,30,97.5,30z"/>
    <path class="st0" d="M97.5,0.6c1.7,0,3.1,1.4,3.1,3.2v22.5c0,1.7-1.4,3.2-3.1,3.2H3.7c-1.7,0-3.1-1.4-3.1-3.2V3.8
        c0-1.7,1.4-3.2,3.1-3.2H97.5z M97.5,0H3.7C1.7,0,0,1.7,0,3.8v22.5C0,28.4,1.7,30,3.7,30h93.7c2.1,0,3.7-1.7,3.7-3.7V3.8
        C101.2,1.7,99.5,0,97.5,0z"/>
    <path class="st1" d="M51.1,16.3c-1.8,0-3.2,1.3-3.2,3.2c0,1.8,1.4,3.2,3.2,3.2s3.2-1.4,3.2-3.2S52.8,16.3,51.1,16.3z
         M51.1,21.4c-1,0-1.8-0.8-1.8-1.9s0.8-1.9,1.8-1.9s1.8,0.8,1.8,1.9S52.1,21.4,51.1,21.4z M44.1,16.3c-1.8,0-3.2,1.3-3.2,3.2
        c0,1.8,1.4,3.2,3.2,3.2s3.2-1.4,3.2-3.2S45.9,16.3,44.1,16.3z M44.1,21.4c-1,0-1.8-0.8-1.8-1.9s0.8-1.9,1.8-1.9s1.8,0.8,1.8,1.9
        S45.1,21.4,44.1,21.4z M35.8,17.3v1.4H39c-0.1,0.8-0.4,1.3-0.7,1.7c-0.5,0.5-1.2,1-2.5,1c-2,0-3.6-1.6-3.6-3.6s1.6-3.6,3.6-3.6
        c1.1,0,1.9,0.4,2.4,1l1-1c-0.8-0.8-1.9-1.4-3.4-1.4c-2.7,0-5,2.2-5,5c0,2.7,2.3,5,5,5c1.5,0,2.6-0.5,3.5-1.4
        c0.9-0.9,1.2-2.2,1.2-3.2c0-0.3,0-0.6-0.1-0.8h-4.6V17.3z M69.8,18.3c-0.3-0.7-1.1-2-2.7-2c-1.6,0-3,1.3-3,3.2
        c0,1.8,1.4,3.2,3.2,3.2c1.5,0,2.3-0.9,2.7-1.4l-1.1-0.7c-0.4,0.5-0.9,0.9-1.6,0.9c-0.7,0-1.2-0.3-1.5-1l4.3-1.8L69.8,18.3z
         M65.4,19.4c0-1.2,1-1.9,1.7-1.9c0.6,0,1,0.3,1.2,0.7L65.4,19.4z M62,22.5h1.4v-9.4H62V22.5z M59.7,17c-0.4-0.4-1-0.7-1.7-0.7
        c-1.6,0-3.1,1.4-3.1,3.2s1.5,3.2,3.1,3.2c0.8,0,1.4-0.3,1.7-0.7v0.5c0,1.2-0.7,1.9-1.7,1.9c-0.9,0-1.4-0.6-1.6-1.1l-1.2,0.5
        c0.4,0.8,1.3,1.9,2.8,1.9c1.6,0,3-1,3-3.3v-5.7h-1.3V17z M58.1,21.4c-1,0-1.8-0.8-1.8-1.9s0.8-1.9,1.8-1.9s1.7,0.8,1.7,1.9
        S59,21.4,58.1,21.4z M76.3,13.1h-3.4v9.4h1.4v-3.6h2c1.6,0,3.1-1.1,3.1-2.9S77.9,13.1,76.3,13.1z M76.4,17.6h-2v-3.2h2
        c1,0,1.6,0.9,1.6,1.6C78,16.8,77.4,17.6,76.4,17.6z M85,16.3c-1,0-2.1,0.4-2.5,1.4l1.2,0.5c0.3-0.5,0.8-0.7,1.3-0.7
        c0.7,0,1.5,0.4,1.5,1.2v0.1c-0.3-0.1-0.8-0.4-1.5-0.4c-1.3,0-2.7,0.7-2.7,2.1c0,1.3,1.1,2.1,2.3,2.1c0.9,0,1.5-0.4,1.8-0.9v0.7h1.5
        v-3.6C87.9,17.2,86.6,16.3,85,16.3z M84.9,21.4c-0.5,0-1.1-0.2-1.1-0.8c0-0.7,0.8-1,1.5-1c0.6,0,0.9,0.1,1.3,0.3
        C86.4,20.8,85.7,21.4,84.9,21.4z M92.8,16.5l-1.6,4.1l-1.7-4.1H88l2.5,5.7l-1.4,3.2h1.5l3.8-8.8h-1.6V16.5z M80.2,22.5h1.4v-9.4
        h-1.4V22.5z"/>
    <path class="st2" d="M7.8,5.7c-0.2,0.2-0.3,0.5-0.3,1v16.6c0,0.5,0.1,0.8,0.3,1.1h0.1l9.3-9.3V15v-0.1L7.8,5.7z"/>
    <path class="st3" d="M20.2,18.2l-3.1-3.1V15v-0.1l3.1-3.1h0.1l3.7,2.1c1,0.6,1,1.6,0,2.2L20.2,18.2z"/>
    <path class="st4" d="M20.3,18.2L17.1,15l-9.3,9.3c0.3,0.4,0.9,0.4,1.6,0L20.3,18.2"/>
    <path class="st5" d="M20.3,11.8L9.4,5.6c-0.6-0.4-1.2-0.3-1.6,0l9.3,9.3L20.3,11.8z"/>
    <path class="st6" d="M30.9,9.8V5.3h1.4c0.7,0,1.2,0.2,1.7,0.6c0.4,0.4,0.6,1,0.6,1.6c0,0.7-0.2,1.2-0.6,1.6c-0.4,0.4-1,0.6-1.7,0.6
        h-1.4V9.8z M31.5,9.2h0.8c0.5,0,0.9-0.1,1.2-0.4S34,8.1,34,7.5c0-0.5-0.2-0.9-0.5-1.2c-0.3-0.3-0.7-0.4-1.2-0.4h-0.8V9.2z M35.4,9.8
        V5.3H36v4.5H35.4z M38.3,9.9c-0.3,0-0.6-0.1-1-0.3c-0.3-0.2-0.5-0.5-0.6-0.9l0.5-0.2c0.1,0.2,0.2,0.5,0.4,0.6
        c0.2,0.2,0.4,0.3,0.7,0.3s0.5-0.1,0.6-0.2c0.1-0.1,0.3-0.3,0.3-0.5c0-0.3-0.1-0.4-0.3-0.6c-0.2-0.1-0.5-0.3-0.8-0.4
        c-0.4-0.1-0.7-0.3-0.9-0.5c-0.2-0.3-0.3-0.5-0.3-0.9c0-0.3,0.1-0.6,0.4-0.8s0.6-0.4,1-0.4c0.4,0,0.7,0.1,0.9,0.3
        c0.2,0.2,0.4,0.4,0.5,0.6l-0.5,0.2c0-0.1-0.1-0.3-0.3-0.4c-0.1-0.1-0.3-0.2-0.6-0.2c-0.2,0-0.4,0.1-0.6,0.2
        c-0.2,0.1-0.2,0.3-0.2,0.5c0,0.2,0.1,0.3,0.2,0.4c0.1,0.1,0.4,0.2,0.6,0.3s0.4,0.1,0.6,0.2c0.1,0.1,0.3,0.2,0.5,0.3
        c0.2,0.1,0.3,0.2,0.3,0.4c0.1,0.2,0.1,0.4,0.1,0.6s0,0.4-0.1,0.6c-0.1,0.2-0.2,0.3-0.4,0.4c-0.1,0.1-0.3,0.2-0.5,0.2
        S38.5,9.9,38.3,9.9z M41.2,9.8h-0.6V5.3h1.5c0.4,0,0.7,0.1,1,0.4c0.3,0.3,0.4,0.6,0.4,1c0,0.4-0.1,0.7-0.4,1c-0.3,0.3-0.6,0.4-1,0.4
        h-1v1.7H41.2z M41.2,7.4h1c0.2,0,0.4-0.1,0.6-0.2C42.9,7,43,6.8,43,6.6c0-0.2-0.1-0.4-0.3-0.6c-0.1-0.2-0.3-0.2-0.6-0.2h-1v1.6H41.2
        z M48,9.2c-0.4,0.5-1,0.7-1.7,0.7s-1.2-0.2-1.6-0.7c-0.4-0.5-0.7-1-0.7-1.7s0.2-1.2,0.7-1.7c0.4-0.5,1-0.7,1.6-0.7
        c0.7,0,1.2,0.2,1.6,0.7c0.4,0.5,0.7,1,0.7,1.7S48.4,8.7,48,9.2z M45.1,8.8c0.3,0.3,0.7,0.5,1.2,0.5s0.9-0.2,1.2-0.5
        C47.9,8.5,48,8,48,7.5s-0.2-1-0.5-1.3c-0.3-0.3-0.7-0.5-1.2-0.5s-0.9,0.2-1.2,0.5c-0.3,0.3-0.5,0.8-0.5,1.3S44.8,8.5,45.1,8.8z
         M49.4,9.8V5.3h0.7l2.2,3.5l0,0V7.9V5.3h0.6v4.5h-0.6L50,6.1l0,0V7v2.8H49.4z M53.9,9.8V5.3h0.6v4.5H53.9z M55.5,9.8V5.3h1.6
        c0.4,0,0.7,0.1,0.9,0.3c0.3,0.2,0.4,0.5,0.4,0.9c0,0.2-0.1,0.4-0.2,0.6c-0.1,0.2-0.3,0.3-0.4,0.4c0.2,0.1,0.4,0.2,0.5,0.4
        c0.1,0.2,0.2,0.4,0.2,0.6c0,0.4-0.1,0.7-0.4,0.9c-0.3,0.2-0.6,0.4-1,0.4H55.5z M56.1,7.2h1c0.2,0,0.4-0.1,0.5-0.2
        c0.2-0.2,0.3-0.3,0.3-0.5S57.8,6.2,57.7,6c-0.1-0.1-0.3-0.2-0.5-0.2h-1.1V7.2z M56.1,9.2h1.2c0.2,0,0.4-0.1,0.5-0.2
        C57.9,8.8,58,8.7,58,8.5S57.9,8.1,57.8,8c-0.1-0.2-0.3-0.2-0.6-0.2h-1.1V9.2z M59.4,9.8V5.3H60v4.5H59.4z M61,9.8V5.3h0.6v3.9h1.9
        v0.6H61z M66.9,5.8h-2v1.4h1.8v0.5h-1.8v1.4h2v0.6h-2.6V5.3h2.6V5.8z M70.4,9.9c-0.3,0-0.6-0.1-1-0.3c-0.3-0.3-0.5-0.6-0.6-1
        l0.5-0.2c0.1,0.2,0.2,0.5,0.4,0.6c0.2,0.2,0.4,0.3,0.7,0.3c0.3,0,0.5-0.1,0.6-0.2c0.2-0.1,0.3-0.3,0.3-0.5c0-0.3-0.1-0.4-0.3-0.6
        c-0.2-0.1-0.5-0.3-0.8-0.4c-0.4-0.1-0.7-0.3-0.9-0.5C69.1,6.9,69,6.6,69,6.3c0-0.3,0.1-0.6,0.4-0.8c0.3-0.2,0.6-0.4,1-0.4
        s0.7,0.1,0.9,0.3c0.2,0.2,0.4,0.4,0.5,0.6l-0.5,0.2c0-0.1-0.1-0.3-0.3-0.4c-0.1-0.1-0.3-0.2-0.6-0.2c-0.2,0-0.4,0.1-0.6,0.2
        c-0.2,0.1-0.2,0.3-0.2,0.5c0,0.2,0.1,0.3,0.2,0.4c0.1,0.2,0.3,0.3,0.6,0.4c0.2,0.1,0.4,0.1,0.6,0.2c0.1,0.1,0.3,0.2,0.5,0.3
        s0.3,0.2,0.3,0.4c0.1,0.1,0.1,0.3,0.1,0.5s0,0.4-0.1,0.6c-0.1,0.2-0.2,0.3-0.4,0.4c-0.1,0.1-0.3,0.2-0.5,0.2
        C70.7,9.8,70.6,9.9,70.4,9.9z M74.3,9.9c-0.5,0-0.9-0.2-1.2-0.5c-0.3-0.3-0.5-0.8-0.5-1.3V5.3h0.6v2.9c0,0.4,0.1,0.6,0.3,0.9
        c0.2,0.2,0.5,0.3,0.8,0.3c0.4,0,0.6-0.1,0.8-0.3c0.2-0.2,0.3-0.5,0.3-0.9V5.3H76v2.8c0,0.5-0.2,1-0.4,1.3
        C75.2,9.7,74.8,9.9,74.3,9.9z"/>
</svg>
