<svg version="1.1" xmlns="http://www.w3.org/2000/svg" xmlns:xlink="http://www.w3.org/1999/xlink" x="0px" y="0px" viewBox="0 0 99.3 40" style="enable-background:new 0 0 99.3 40;" xml:space="preserve">
    <path fill="#FFFFFF" d="M13.3,0.9c0.6,0.6,0.8,1.3,0.8,2.1c0,0.8-0.3,1.5-0.8,2.1c-0.5,0.6-1.2,0.8-2,0.8c-0.7,0-1.4-0.3-1.9-0.9
        C8.8,4.4,8.5,3.7,8.5,2.9c0-0.8,0.3-1.5,0.8-2C9.9,0.3,10.6,0,11.3,0C12.1,0,12.8,0.3,13.3,0.9z M0,19.9h9.2v19.3h4.2v-23H0V19.9z
         M53.6,20c0,6.1-1.5,10.8-4.5,14.2c-3,3.4-6.9,5-11.7,5H22.2V0.7h15c5,0,8.9,1.7,11.9,5.1C52.1,9.3,53.6,14,53.6,20z M48.9,20
        c0-4.8-1.1-8.5-3.2-11.3c-2.1-2.7-4.9-4.1-8.5-4.1H26.6v30.7h10.6c3.6,0,6.4-1.4,8.5-4.1C47.9,28.6,48.9,24.8,48.9,20z M91.7,20
        c0,6.1-1.5,10.8-4.6,14.2c-3,3.4-6.9,5-11.7,5H60.3V0.7h15c5,0,8.9,1.7,11.9,5.1C90.2,9.3,91.7,14,91.7,20z M87,20
        c0-4.8-1.1-8.5-3.2-11.3c-2.1-2.7-4.9-4.1-8.5-4.1H64.7v30.7h10.6c3.6,0,6.4-1.4,8.5-4.1C86,28.6,87,24.8,87,20z M98.5,35
        c-0.6-0.6-1.2-0.9-2-0.9c-0.7,0-1.4,0.3-1.9,0.9c-0.6,0.6-0.8,1.3-0.8,2c0,0.8,0.3,1.5,0.8,2.1c0.6,0.6,1.2,0.9,1.9,0.9
        c0.8,0,1.5-0.3,2-0.8c0.5-0.6,0.8-1.3,0.8-2.1C99.3,36.3,99,35.6,98.5,35z"/>
</svg>