<svg version="1.1" xmlns="http://www.w3.org/2000/svg" xmlns:xlink="http://www.w3.org/1999/xlink" x="0px" y="0px" viewBox="0 0 219.1 40" style="enable-background:new 0 0 219.1 40;" xml:space="preserve">
    <path fill="#FFFFFF" d="M0,13.8h2.1V3.4H0V13.8z M0,2.2h2.2V0H0V2.2z M12.1,4c-0.3-0.3-0.7-0.5-1.1-0.7
        c-0.4-0.1-0.9-0.2-1.4-0.2c-0.8,0-1.4,0.2-1.9,0.5C7.3,3.9,7,4.2,6.8,4.6V3.4H4.7v10.5h2.1V7.8C6.8,7.3,6.9,7,7,6.6
        c0.1-0.3,0.3-0.7,0.5-0.9c0.2-0.3,0.5-0.4,0.7-0.6C8.5,5,8.8,4.9,9.1,4.9c0.7,0,1.2,0.2,1.4,0.6c0.3,0.4,0.4,0.9,0.4,1.7v6.7H13V6.9
        c0-0.7-0.1-1.2-0.2-1.7C12.6,4.7,12.4,4.3,12.1,4 M22.8,4c-0.3-0.3-0.7-0.5-1.1-0.7c-0.4-0.1-0.9-0.2-1.4-0.2
        c-0.8,0-1.4,0.2-1.9,0.5c-0.3,0.2-0.6,0.5-0.9,0.9V3.4h-2.1v10.5h2.1V7.8c0-0.4,0.1-0.8,0.2-1.2c0.1-0.3,0.3-0.7,0.5-0.9
        c0.2-0.3,0.5-0.4,0.7-0.6c0.3-0.1,0.6-0.2,0.9-0.2c0.7,0,1.2,0.2,1.4,0.6c0.3,0.4,0.4,0.9,0.4,1.7v6.7h2.1V6.9
        c0-0.7-0.1-1.2-0.2-1.7C23.4,4.7,23.1,4.3,22.8,4 M33.9,4.7c-0.4-0.5-0.9-0.9-1.5-1.1c-0.6-0.3-1.3-0.4-2-0.4c-0.8,0-1.5,0.1-2,0.4
        c-0.6,0.3-1.1,0.7-1.5,1.1S26.2,5.8,26,6.4c-0.2,0.7-0.3,1.4-0.3,2.2c0,0.8,0.1,1.5,0.3,2.2c0.2,0.7,0.5,1.2,0.9,1.7
        c0.4,0.5,0.9,0.9,1.5,1.1c0.6,0.3,1.3,0.4,2,0.4c0.8,0,1.5-0.1,2-0.4c0.6-0.3,1.1-0.7,1.5-1.1c0.4-0.5,0.7-1.1,0.9-1.7
        C35,10.1,35,9.4,35,8.6c0-0.8-0.1-1.5-0.3-2.2C34.6,5.8,34.3,5.2,33.9,4.7 M32.9,7v3.1c0,0.3-0.1,0.6-0.2,0.9
        c-0.1,0.3-0.3,0.5-0.5,0.7c-0.2,0.2-0.5,0.3-0.8,0.4c-0.6,0.2-1.3,0.2-1.9,0c-0.3-0.1-0.6-0.3-0.8-0.4c-0.2-0.2-0.4-0.4-0.5-0.7
        C28,10.8,28,10.5,28,10.2V7c0-0.3,0.1-0.6,0.2-0.9c0.1-0.3,0.3-0.5,0.5-0.7c0.2-0.2,0.5-0.3,0.8-0.4c0.3-0.1,0.6-0.2,0.9-0.2
        s0.6,0.1,0.9,0.2c0.3,0.1,0.6,0.3,0.8,0.4c0.2,0.2,0.4,0.4,0.5,0.7C32.8,6.4,32.9,6.7,32.9,7 M40.6,11.1l-2.4-7.7h-2.3l3.7,10.5h1.9
        l3.7-10.5h-2.2L40.6,11.1z M54.3,6.8c0-0.6-0.1-1.2-0.3-1.6c-0.2-0.5-0.5-0.8-0.8-1.1c-0.4-0.3-0.8-0.5-1.3-0.7
        c-1-0.3-2.1-0.3-3.1,0c-0.5,0.2-0.9,0.4-1.3,0.7c-0.4,0.3-0.6,0.7-0.9,1.1c-0.2,0.4-0.3,0.9-0.3,1.4v0.2h2.1V6.6
        c0-0.6,0.2-1,0.5-1.3c0.3-0.3,0.8-0.4,1.4-0.4c0.3,0,0.6,0,0.8,0.1c0.2,0.1,0.4,0.1,0.6,0.3c0.2,0.1,0.3,0.3,0.4,0.5
        c0.1,0.2,0.1,0.5,0.1,0.9v0.7l-3.1,0.3c-1,0.1-1.8,0.4-2.3,1c-0.5,0.6-0.8,1.3-0.8,2.2c0,0.4,0.1,0.8,0.2,1.2c0.2,0.4,0.4,0.7,0.6,1
        c0.3,0.3,0.7,0.6,1.1,0.7c0.4,0.2,0.9,0.2,1.4,0.2c0.8,0,1.4-0.2,2-0.5c0.4-0.3,0.8-0.7,1-1.2l0,1.5h3.3V12h-1.5V6.8z M52.3,9.1v0.3
        c0,0.9-0.2,1.6-0.6,2.1c-0.4,0.5-1,0.8-1.7,0.8c-0.5,0-0.9-0.1-1.2-0.3c-0.3-0.2-0.4-0.5-0.4-0.9v-0.9c0-0.3,0-0.5,0.1-0.6
        c0.1-0.1,0.3-0.2,0.5-0.2L52.3,9.1z M59.9,0h-2.1v3.4h-1.7v1.9h1.7v8.6h4.4V12h-2.3V5.2h2.3V3.4h-2.3V0z M63.9,13.8H66V3.4h-2.1
        V13.8z M63.9,2.2h2.2V0h-2.2V2.2z M76.2,4.7c-0.4-0.5-0.9-0.9-1.5-1.1c-0.6-0.3-1.3-0.4-2-0.4c-0.8,0-1.5,0.1-2,0.4
        c-0.6,0.3-1.1,0.7-1.5,1.1c-0.4,0.5-0.7,1.1-0.9,1.7c-0.2,0.7-0.3,1.4-0.3,2.2c0,0.8,0.1,1.5,0.3,2.2c0.2,0.7,0.5,1.2,0.9,1.7
        c0.4,0.5,0.9,0.9,1.5,1.1c0.6,0.3,1.3,0.4,2,0.4c0.8,0,1.5-0.1,2-0.4c0.6-0.3,1.1-0.7,1.5-1.1c0.4-0.5,0.7-1.1,0.9-1.7
        c0.2-0.7,0.3-1.4,0.3-2.2c0-0.8-0.1-1.5-0.3-2.2C76.9,5.8,76.6,5.2,76.2,4.7 M75.2,7v3.1c0,0.3-0.1,0.6-0.2,0.9
        c-0.1,0.3-0.3,0.5-0.5,0.7c-0.2,0.2-0.5,0.3-0.8,0.4c-0.6,0.2-1.3,0.2-1.9,0c-0.3-0.1-0.6-0.3-0.8-0.4c-0.2-0.2-0.4-0.4-0.5-0.7
        c-0.1-0.3-0.2-0.6-0.2-0.9V7c0-0.3,0.1-0.6,0.2-0.9c0.1-0.3,0.3-0.5,0.5-0.7c0.2-0.2,0.5-0.3,0.8-0.4c0.3-0.1,0.6-0.2,0.9-0.2
        c0.3,0,0.6,0.1,0.9,0.2c0.3,0.1,0.6,0.3,0.8,0.4c0.2,0.2,0.4,0.4,0.5,0.7C75.1,6.4,75.2,6.7,75.2,7 M86.7,4
        c-0.3-0.3-0.7-0.5-1.1-0.7c-0.4-0.1-0.9-0.2-1.4-0.2c-0.8,0-1.4,0.2-1.9,0.5c-0.3,0.2-0.6,0.5-0.9,0.9V3.4h-2.1v10.5h2.1V7.8
        c0-0.4,0.1-0.8,0.2-1.2c0.1-0.3,0.3-0.7,0.5-0.9c0.2-0.3,0.5-0.4,0.7-0.6c0.3-0.1,0.6-0.2,0.9-0.2c0.7,0,1.2,0.2,1.4,0.6
        c0.3,0.4,0.4,0.9,0.4,1.7v6.7h2.1V6.9c0-0.7-0.1-1.2-0.2-1.7C87.3,4.7,87,4.3,86.7,4 M99.5,0H95v13.8h4.5c2,0,3.6-0.6,4.5-1.7
        c0.9-1.1,1.4-2.9,1.4-5.2c0-2.3-0.5-4-1.4-5.2C103,0.6,101.5,0,99.5,0z M97.2,2h2.3c1.2,0,2.1,0.3,2.7,0.8c0.6,0.5,0.8,1.2,0.8,2.2
        v4c0,1-0.3,1.7-0.8,2.2c-0.6,0.5-1.4,0.8-2.7,0.8h-2.3V2z M114.8,4.6c-0.4-0.5-0.8-0.8-1.4-1.1c-0.6-0.3-1.2-0.4-1.9-0.4
        c-0.7,0-1.3,0.1-1.9,0.4c-0.5,0.3-1,0.7-1.4,1.1c-0.4,0.5-0.7,1.1-0.9,1.7c-0.2,0.7-0.3,1.4-0.3,2.2c0,0.8,0.1,1.5,0.3,2.2
        c0.2,0.7,0.5,1.2,0.8,1.7c0.4,0.5,0.8,0.9,1.4,1.1c0.6,0.3,1.2,0.4,2,0.4c0.5,0,1.1-0.1,1.6-0.3c0.5-0.2,0.9-0.4,1.3-0.7
        c0.4-0.3,0.7-0.7,1-1.1c0.3-0.4,0.4-1,0.4-1.5l0-0.2h-2.1l0,0.2c-0.1,0.7-0.3,1.1-0.7,1.4c-0.4,0.3-0.9,0.5-1.5,0.5
        c-0.3,0-0.6,0-0.9-0.1c-0.3-0.1-0.5-0.2-0.7-0.4c-0.2-0.2-0.4-0.4-0.5-0.7c-0.1-0.3-0.2-0.6-0.2-0.9V9.3h6.7V8.2
        c0-0.7-0.1-1.4-0.3-1.9C115.4,5.6,115.1,5.1,114.8,4.6z M109.2,7.5V7.1c0-0.3,0.1-0.7,0.2-0.9c0.1-0.3,0.3-0.5,0.5-0.7
        c0.2-0.2,0.5-0.3,0.7-0.4c0.5-0.2,1.2-0.2,1.7,0c0.3,0.1,0.5,0.2,0.7,0.4c0.2,0.2,0.4,0.4,0.5,0.7c0.1,0.3,0.2,0.6,0.2,0.9v0.4
        H109.2z M122.5,7.8l-1.7-0.4c-0.5-0.1-0.8-0.2-1-0.4c-0.2-0.2-0.3-0.5-0.3-0.8c0-0.4,0.2-0.7,0.5-0.9c0.3-0.2,0.8-0.4,1.3-0.4
        c0.5,0,0.9,0.1,1.3,0.4c0.3,0.2,0.5,0.7,0.5,1.3l0,0.2h2.1l0-0.2c0-0.6-0.1-1.1-0.4-1.5c-0.2-0.4-0.5-0.8-0.9-1.1
        c-0.4-0.3-0.8-0.5-1.3-0.6c-1-0.3-2.1-0.2-3,0c-0.5,0.2-0.9,0.4-1.2,0.6c-0.3,0.3-0.6,0.6-0.8,1c-0.2,0.4-0.3,0.8-0.3,1.2
        c0,0.8,0.2,1.5,0.7,2c0.5,0.5,1.1,0.8,2,1l1.6,0.3c0.6,0.1,1.1,0.3,1.3,0.5c0.2,0.2,0.3,0.5,0.3,0.9c0,0.4-0.2,0.8-0.6,1
        c-0.4,0.2-0.9,0.4-1.4,0.4c-0.6,0-1.1-0.2-1.5-0.5c-0.4-0.3-0.6-0.8-0.6-1.4l0-0.2h-2.1l0,0.2c0,0.6,0.1,1.1,0.4,1.6
        c0.2,0.5,0.5,0.8,0.9,1.1c0.4,0.3,0.8,0.5,1.3,0.7c0.5,0.2,1,0.2,1.6,0.2c0.6,0,1.2-0.1,1.7-0.3c0.5-0.2,0.9-0.4,1.3-0.7
        c0.4-0.3,0.7-0.6,0.9-1c0.2-0.4,0.3-0.8,0.3-1.3c0-0.9-0.3-1.5-0.8-2.1C124.3,8.4,123.5,8,122.5,7.8 M127.5,13.8h2.1V3.4h-2.1V13.8z
         M127.4,2.2h2.2V0h-2.2V2.2z M138.8,4.6c-0.3-0.4-0.6-0.7-1-0.9c-0.6-0.3-1.2-0.5-2-0.5c-0.7,0-1.3,0.1-1.8,0.4
        c-0.5,0.3-1,0.7-1.3,1.2c-0.3,0.5-0.6,1.1-0.8,1.7c-0.2,0.7-0.2,1.4-0.2,2.1c0,0.8,0.1,1.5,0.2,2.1c0.2,0.7,0.4,1.2,0.8,1.7
        c0.3,0.5,0.8,0.9,1.3,1.2c0.5,0.3,1.1,0.4,1.8,0.4c0.8,0,1.4-0.2,2-0.5c0.4-0.2,0.7-0.6,1-0.9v0.8c0,0.5-0.1,0.9-0.2,1.2
        c-0.1,0.3-0.3,0.6-0.5,0.8c-0.2,0.2-0.5,0.3-0.8,0.4c-0.3,0.1-0.6,0.1-0.9,0.1c-0.7,0-1.2-0.1-1.6-0.4c-0.4-0.3-0.6-0.6-0.7-1.2
        l0-0.2H132l0,0.2c0.1,0.6,0.3,1.2,0.5,1.6c0.3,0.4,0.6,0.8,1,1c0.4,0.3,0.9,0.4,1.3,0.5c0.5,0.1,1,0.2,1.5,0.2
        c0.5,0,1.1-0.1,1.6-0.2c0.5-0.2,1-0.4,1.4-0.8c0.4-0.4,0.8-0.8,1-1.3c0.3-0.5,0.4-1.2,0.4-1.9V3.4h-2.1V4.6z M138.1,5.7
        c0.4,0.5,0.7,1.2,0.7,2.1v1.7c0,0.8-0.2,1.5-0.7,2.1c-0.4,0.5-1.1,0.8-1.9,0.8c-0.4,0-0.7-0.1-1-0.2c-0.3-0.1-0.5-0.3-0.7-0.4
        c-0.2-0.2-0.4-0.4-0.5-0.7c-0.1-0.3-0.2-0.6-0.2-0.9V7c0-0.3,0.1-0.6,0.2-0.9c0.1-0.3,0.3-0.5,0.5-0.7c0.2-0.2,0.5-0.3,0.7-0.4
        c0.3-0.1,0.6-0.2,0.9-0.2C137,4.9,137.7,5.2,138.1,5.7z M150.8,4c-0.3-0.3-0.7-0.5-1.1-0.7c-0.4-0.1-0.9-0.2-1.4-0.2
        c-0.8,0-1.4,0.2-1.9,0.5c-0.3,0.2-0.6,0.5-0.9,0.9V3.4h-2.1v10.5h2.1V7.8c0-0.4,0.1-0.8,0.2-1.2c0.1-0.3,0.3-0.7,0.5-0.9
        c0.2-0.3,0.5-0.4,0.7-0.6c0.3-0.1,0.6-0.2,0.9-0.2c0.7,0,1.2,0.2,1.4,0.6c0.3,0.4,0.4,0.9,0.4,1.7v6.7h2.1V6.9
        c0-0.7-0.1-1.2-0.2-1.7C151.3,4.7,151.1,4.3,150.8,4 M163.5,0H159v13.8h4.5c2,0,3.6-0.6,4.5-1.7c0.9-1.1,1.4-2.9,1.4-5.2
        c0-2.3-0.5-4-1.4-5.2C167,0.6,165.5,0,163.5,0z M161.2,2h2.3c1.2,0,2.1,0.3,2.7,0.8c0.6,0.5,0.8,1.2,0.8,2.2v4c0,1-0.3,1.7-0.8,2.2
        c-0.6,0.5-1.4,0.8-2.7,0.8h-2.3V2z M171.5,2.2h2.2V0h-2.2V2.2z M171.5,13.8h2.1V3.4h-2.1V13.8z M180.8,7.8l-1.7-0.4
        c-0.5-0.1-0.8-0.2-1-0.4c-0.2-0.2-0.3-0.5-0.3-0.8c0-0.4,0.2-0.7,0.5-0.9c0.3-0.2,0.8-0.4,1.3-0.4c0.5,0,0.9,0.1,1.3,0.4
        c0.3,0.2,0.5,0.7,0.5,1.3l0,0.2h2.1l0-0.2c0-0.6-0.1-1.1-0.4-1.5c-0.2-0.4-0.5-0.8-0.9-1.1c-0.4-0.3-0.8-0.5-1.3-0.6
        c-1-0.3-2.1-0.2-3,0c-0.5,0.2-0.9,0.4-1.2,0.6c-0.3,0.3-0.6,0.6-0.8,1c-0.2,0.4-0.3,0.8-0.3,1.2c0,0.8,0.2,1.5,0.7,2
        c0.5,0.5,1.1,0.8,2,1l1.6,0.3c0.6,0.1,1.1,0.3,1.3,0.5c0.2,0.2,0.3,0.5,0.3,0.9c0,0.4-0.2,0.8-0.6,1c-0.4,0.2-0.9,0.4-1.4,0.4
        c-0.6,0-1.1-0.2-1.5-0.5c-0.4-0.3-0.6-0.8-0.6-1.4l0-0.2h-2.1l0,0.2c0,0.6,0.1,1.1,0.4,1.6c0.2,0.5,0.5,0.8,0.9,1.1
        c0.4,0.3,0.8,0.5,1.3,0.7c0.5,0.2,1,0.2,1.6,0.2c0.6,0,1.2-0.1,1.7-0.3c0.5-0.2,0.9-0.4,1.3-0.7c0.4-0.3,0.7-0.6,0.9-1
        c0.2-0.4,0.3-0.8,0.3-1.3c0-0.9-0.3-1.5-0.8-2.1C182.6,8.4,181.8,8,180.8,7.8 M188.6,0h-2.1v3.4h-1.7v1.9h1.7v8.6h4.4V12h-2.3V5.2
        h2.3V3.4h-2.3V0z M192.7,13.8h2.1V5.3h3V3.4h-5.1V13.8z M199.3,13.8h2.1V3.4h-2.1V13.8z M199.3,2.2h2.2V0h-2.2V2.2z M210,10.3
        c-0.1,0.7-0.3,1.2-0.7,1.5c-0.4,0.3-0.9,0.5-1.5,0.5c-0.3,0-0.6-0.1-0.8-0.2c-0.3-0.1-0.5-0.3-0.7-0.4c-0.2-0.2-0.4-0.4-0.5-0.7
        c-0.1-0.3-0.2-0.6-0.2-0.9v-3c0-0.4,0.1-0.7,0.2-1c0.1-0.3,0.3-0.5,0.5-0.7c0.2-0.2,0.4-0.3,0.7-0.4c0.5-0.2,1.1-0.2,1.6,0
        c0.2,0.1,0.5,0.2,0.7,0.3c0.2,0.1,0.3,0.3,0.5,0.6c0.1,0.3,0.2,0.6,0.2,1l0,0.2h2.1l0-0.2c-0.1-0.6-0.2-1.2-0.4-1.7
        c-0.2-0.5-0.5-0.9-0.9-1.2c-0.4-0.3-0.8-0.5-1.3-0.7c-0.5-0.1-1-0.2-1.5-0.2c-0.7,0-1.3,0.1-1.9,0.4c-0.6,0.3-1,0.7-1.4,1.1
        c-0.4,0.5-0.7,1.1-0.9,1.8c-0.2,0.7-0.3,1.4-0.3,2.3c0,0.8,0.1,1.5,0.3,2.1c0.2,0.7,0.4,1.2,0.8,1.7c0.4,0.5,0.8,0.9,1.4,1.1
        c0.5,0.3,1.2,0.4,2,0.4c0.5,0,1-0.1,1.5-0.2c0.5-0.2,0.9-0.4,1.3-0.7c0.4-0.3,0.7-0.7,1-1.2c0.3-0.5,0.4-1,0.5-1.7l0-0.2H210
        L210,10.3z M219.1,5.2V3.4h-2.3V0h-2.1v3.4h-1.7v1.9h1.7v8.6h4.4V12h-2.3V5.2H219.1z M0,37.4V27.1h1.7l3.1,8.6h0.1l3.1-8.6h1.6v10.3
        h-1v-8.9H8.5l-3.3,8.9H4.3l-3.3-8.9H1v8.9H0z M11.4,37.4h1.1V27.1h-1.1V37.4z M14.3,37.4V27.1h1.1v9.3H20v1H14.3z M22.9,33.8h3.7
        l-1.8-5.5h-0.1L22.9,33.8z M20.6,37.4l3.6-10.3h1.3L29,37.4h-1.1l-0.9-2.7h-4.3l-0.9,2.7H20.6z M29.9,37.4V27.1h1.7l4.6,9.1h0.1
        v-9.1h1.1v10.3h-1.7L31,28.3h-0.1v9.1H29.9z M39.9,33.8c0,0.4,0.1,0.8,0.2,1.2c0.1,0.3,0.4,0.6,0.6,0.9c0.3,0.3,0.6,0.4,1,0.6
        c0.4,0.1,0.8,0.2,1.2,0.2c0.4,0,0.8-0.1,1.2-0.2c0.4-0.1,0.7-0.3,1-0.6c0.3-0.2,0.5-0.5,0.6-0.9c0.2-0.4,0.2-0.8,0.2-1.2v-3.1
        c0-0.4-0.1-0.8-0.2-1.2c-0.2-0.4-0.4-0.7-0.6-0.9c-0.3-0.3-0.6-0.4-1-0.6c-0.4-0.1-0.8-0.2-1.2-0.2c-0.4,0-0.9,0.1-1.2,0.2
        c-0.4,0.1-0.7,0.3-1,0.6c-0.3,0.3-0.5,0.6-0.6,0.9c-0.2,0.4-0.2,0.7-0.2,1.2V33.8z M38.7,32.3c0-0.8,0.1-1.5,0.2-2.2
        c0.2-0.7,0.4-1.2,0.8-1.7c0.3-0.5,0.8-0.8,1.3-1.1c0.5-0.3,1.2-0.4,2-0.4c0.8,0,1.4,0.1,2,0.4c0.5,0.3,1,0.6,1.3,1.1
        c0.3,0.5,0.6,1,0.8,1.7c0.2,0.7,0.2,1.4,0.2,2.2c0,0.8-0.1,1.5-0.2,2.2c-0.2,0.7-0.4,1.2-0.8,1.7c-0.3,0.5-0.8,0.8-1.3,1.1
        c-0.5,0.3-1.2,0.4-2,0.4c-0.8,0-1.4-0.1-2-0.4c-0.5-0.3-1-0.6-1.3-1.1c-0.3-0.5-0.6-1-0.8-1.7C38.7,33.8,38.7,33.1,38.7,32.3z
         M51.3,40h1V24.6h-1V40z M57.8,32.5H61c0.4,0,0.8-0.1,1-0.4c0.3-0.3,0.4-0.6,0.4-1v-1.8c0-0.4-0.1-0.7-0.4-0.9
        c-0.3-0.2-0.6-0.4-1.1-0.4h-3.2V32.5z M56.8,37.4V27.1h3.9c1.1,0,1.8,0.3,2.3,0.8c0.4,0.5,0.7,1.3,0.7,2.4c0,0.6-0.1,1.1-0.2,1.5
        c-0.1,0.4-0.3,0.7-0.6,1c-0.3,0.3-0.6,0.4-1,0.6c-0.4,0.1-0.8,0.2-1.3,0.2h-2.7v3.9H56.8z M65.4,33.8c0,0.4,0.1,0.8,0.2,1.2
        c0.2,0.3,0.4,0.6,0.6,0.9c0.3,0.3,0.6,0.4,1,0.6c0.4,0.1,0.8,0.2,1.2,0.2c0.4,0,0.8-0.1,1.2-0.2c0.4-0.1,0.7-0.3,1-0.6
        c0.3-0.2,0.5-0.5,0.6-0.9c0.2-0.4,0.2-0.8,0.2-1.2v-3.1c0-0.4-0.1-0.8-0.2-1.2c-0.2-0.4-0.4-0.7-0.6-0.9c-0.3-0.3-0.6-0.4-1-0.6
        c-0.4-0.1-0.8-0.2-1.2-0.2c-0.4,0-0.9,0.1-1.2,0.2c-0.4,0.1-0.7,0.3-1,0.6c-0.3,0.3-0.5,0.6-0.6,0.9c-0.2,0.4-0.2,0.7-0.2,1.2V33.8z
         M64.2,32.3c0-0.8,0.1-1.5,0.2-2.2c0.2-0.7,0.4-1.2,0.8-1.7c0.3-0.5,0.8-0.8,1.3-1.1c0.5-0.3,1.2-0.4,2-0.4c0.8,0,1.4,0.1,2,0.4
        c0.5,0.3,1,0.6,1.3,1.1c0.3,0.5,0.6,1,0.8,1.7c0.2,0.7,0.2,1.4,0.2,2.2c0,0.8-0.1,1.5-0.2,2.2c-0.2,0.7-0.4,1.2-0.8,1.7
        c-0.3,0.5-0.8,0.8-1.3,1.1c-0.5,0.3-1.2,0.4-2,0.4c-0.8,0-1.4-0.1-2-0.4c-0.5-0.3-1-0.6-1.3-1.1c-0.3-0.5-0.6-1-0.8-1.7
        C64.3,33.8,64.2,33.1,64.2,32.3z M75.1,32h3.2c0.4,0,0.8-0.1,1-0.4c0.3-0.2,0.4-0.6,0.4-1v-1.2c0-0.4-0.1-0.7-0.4-1
        c-0.3-0.2-0.6-0.3-1-0.3h-3.2V32z M74.1,37.4V27.1H78c1.1,0,1.8,0.3,2.3,0.8c0.4,0.5,0.7,1.2,0.7,2.1c0,0.9-0.2,1.6-0.7,2.1
        c-0.4,0.5-1,0.7-1.8,0.8l2.4,4.5h-1.2l-2.4-4.5h-2.2v4.5H74.1z M81.1,28.1v-1h7.2v1h-3.1v9.3h-1.1v-9.3H81.1z M90.3,33.8H94
        l-1.8-5.5h-0.1L90.3,33.8z M88,37.4l3.6-10.3h1.3l3.6,10.3h-1.1l-0.9-2.7H90l-0.9,2.7H88z M97.3,37.4V27.1h1.7l4.6,9.1h0.1v-9.1h1.1
        v10.3H103l-4.6-9.1h-0.1v9.1H97.3z M106.5,33.8v-6.6h1.1v6.7c0,0.4,0.1,0.8,0.2,1.2c0.1,0.3,0.3,0.6,0.6,0.9
        c0.2,0.2,0.5,0.4,0.8,0.6c0.3,0.1,0.7,0.2,1.1,0.2c0.4,0,0.8-0.1,1.1-0.2c0.3-0.1,0.6-0.3,0.9-0.6c0.2-0.2,0.4-0.5,0.6-0.9
        c0.1-0.3,0.2-0.7,0.2-1.2v-6.7h1.1v6.6c0,0.6-0.1,1.1-0.3,1.6c-0.2,0.5-0.4,0.9-0.8,1.2c-0.3,0.3-0.7,0.6-1.2,0.8
        c-0.5,0.2-1,0.3-1.5,0.3c-0.5,0-1-0.1-1.5-0.3c-0.5-0.2-0.8-0.4-1.2-0.8c-0.3-0.3-0.6-0.7-0.8-1.2C106.5,34.9,106.5,34.4,106.5,33.8
         M116.4,33.8c0,0.4,0.1,0.8,0.2,1.2c0.1,0.3,0.4,0.6,0.6,0.9c0.3,0.3,0.6,0.4,1,0.6c0.4,0.1,0.8,0.2,1.2,0.2c0.4,0,0.8-0.1,1.2-0.2
        c0.4-0.1,0.7-0.3,1-0.6c0.3-0.2,0.5-0.5,0.6-0.9c0.2-0.4,0.2-0.8,0.2-1.2v-3.1c0-0.4-0.1-0.8-0.2-1.2c-0.2-0.4-0.4-0.7-0.6-0.9
        c-0.3-0.3-0.6-0.4-1-0.6c-0.4-0.1-0.8-0.2-1.2-0.2c-0.4,0-0.9,0.1-1.2,0.2c-0.4,0.1-0.7,0.3-1,0.6c-0.3,0.3-0.5,0.6-0.6,0.9
        c-0.2,0.4-0.2,0.7-0.2,1.2V33.8z M115.2,32.3c0-0.8,0.1-1.5,0.2-2.2c0.2-0.7,0.4-1.2,0.8-1.7c0.3-0.5,0.8-0.8,1.3-1.1
        c0.5-0.3,1.2-0.4,2-0.4c0.8,0,1.4,0.1,2,0.4c0.5,0.3,1,0.6,1.3,1.1c0.3,0.5,0.6,1,0.8,1.7c0.2,0.7,0.2,1.4,0.2,2.2
        c0,0.8-0.1,1.5-0.2,2.2c-0.2,0.7-0.4,1.2-0.8,1.7c-0.3,0.5-0.8,0.8-1.3,1.1c-0.5,0.3-1.2,0.4-2,0.4c-0.8,0-1.4-0.1-2-0.4
        c-0.5-0.3-1-0.6-1.3-1.1c-0.3-0.5-0.6-1-0.8-1.7C115.3,33.8,115.2,33.1,115.2,32.3z M124.2,27.1h1.1l2.8,9.1l0.1,0l2.9-9.1h1.1
        l-3.3,10.3h-1.3L124.2,27.1z M134.5,33.8h3.7l-1.8-5.5h-0.1L134.5,33.8z M132.2,37.4l3.6-10.3h1.3l3.6,10.3h-1.1l-0.9-2.7h-4.3
        l-0.9,2.7H132.2z M142.5,32.5h3.2c0.4,0,0.8-0.1,1-0.4c0.3-0.3,0.4-0.6,0.4-1v-1.8c0-0.4-0.1-0.7-0.4-0.9s-0.6-0.4-1.1-0.4h-3.2
        V32.5z M141.5,37.4V27.1h3.9c1.1,0,1.8,0.3,2.3,0.8c0.4,0.5,0.7,1.3,0.7,2.4c0,0.6-0.1,1.1-0.2,1.5c-0.1,0.4-0.3,0.7-0.6,1
        c-0.3,0.3-0.6,0.4-1,0.6c-0.4,0.1-0.8,0.2-1.3,0.2h-2.7v3.9H141.5z M150.1,33.8c0,0.4,0.1,0.8,0.2,1.2c0.1,0.3,0.4,0.6,0.6,0.9
        c0.3,0.3,0.6,0.4,1,0.6c0.4,0.1,0.8,0.2,1.2,0.2c0.4,0,0.8-0.1,1.2-0.2c0.4-0.1,0.7-0.3,1-0.6c0.3-0.2,0.5-0.5,0.6-0.9
        c0.2-0.4,0.2-0.8,0.2-1.2v-3.1c0-0.4-0.1-0.8-0.2-1.2c-0.2-0.4-0.4-0.7-0.6-0.9c-0.3-0.3-0.6-0.4-1-0.6c-0.4-0.1-0.8-0.2-1.2-0.2
        c-0.4,0-0.9,0.1-1.2,0.2c-0.4,0.1-0.7,0.3-1,0.6c-0.3,0.3-0.5,0.6-0.6,0.9c-0.2,0.4-0.2,0.7-0.2,1.2V33.8z M148.9,32.3
        c0-0.8,0.1-1.5,0.2-2.2c0.2-0.7,0.4-1.2,0.8-1.7c0.3-0.5,0.8-0.8,1.3-1.1c0.5-0.3,1.2-0.4,2-0.4c0.8,0,1.4,0.1,2,0.4
        c0.5,0.3,1,0.6,1.3,1.1c0.3,0.5,0.6,1,0.8,1.7c0.2,0.7,0.2,1.4,0.2,2.2c0,0.8-0.1,1.5-0.2,2.2c-0.2,0.7-0.4,1.2-0.8,1.7
        c-0.3,0.5-0.8,0.8-1.3,1.1c-0.5,0.3-1.2,0.4-2,0.4c-0.8,0-1.4-0.1-2-0.4c-0.5-0.3-1-0.6-1.3-1.1c-0.3-0.5-0.6-1-0.8-1.7
        C148.9,33.8,148.9,33.1,148.9,32.3z M159.8,32h3.2c0.4,0,0.8-0.1,1-0.4c0.3-0.2,0.4-0.6,0.4-1v-1.2c0-0.4-0.1-0.7-0.4-1
        c-0.3-0.2-0.6-0.3-1-0.3h-3.2V32z M158.8,37.4V27.1h3.9c1.1,0,1.8,0.3,2.3,0.8c0.4,0.5,0.7,1.2,0.7,2.1c0,0.9-0.2,1.6-0.6,2.1
        c-0.4,0.5-1,0.7-1.8,0.8l2.4,4.5h-1.2l-2.4-4.5h-2.2v4.5H158.8z M165.8,28.1v-1h7.2v1h-3.1v9.3h-1.1v-9.3H165.8z M175,33.8h3.7
        l-1.8-5.5h-0.1L175,33.8z M172.7,37.4l3.6-10.3h1.3l3.6,10.3h-1.1l-0.9-2.7h-4.3l-0.9,2.7H172.7z M180.2,27.1h1.1l2.8,9.1l0.1,0
        l2.9-9.1h1.1l-3.3,10.3h-1.3L180.2,27.1z M189.9,33.8c0,0.4,0.1,0.8,0.2,1.2c0.1,0.3,0.4,0.6,0.6,0.9c0.3,0.3,0.6,0.4,1,0.6
        c0.4,0.1,0.8,0.2,1.2,0.2c0.4,0,0.8-0.1,1.2-0.2c0.4-0.1,0.7-0.3,1-0.6c0.3-0.2,0.5-0.5,0.6-0.9c0.2-0.4,0.2-0.8,0.2-1.2v-3.1
        c0-0.4-0.1-0.8-0.2-1.2c-0.2-0.4-0.4-0.7-0.6-0.9c-0.3-0.3-0.6-0.4-1-0.6c-0.4-0.1-0.8-0.2-1.2-0.2c-0.4,0-0.9,0.1-1.2,0.2
        c-0.4,0.1-0.7,0.3-1,0.6c-0.3,0.3-0.5,0.6-0.6,0.9c-0.2,0.4-0.2,0.7-0.2,1.2V33.8z M188.7,32.3c0-0.8,0.1-1.5,0.2-2.2
        c0.2-0.7,0.4-1.2,0.8-1.7c0.3-0.5,0.8-0.8,1.3-1.1c0.5-0.3,1.2-0.4,2-0.4s1.4,0.1,2,0.4c0.5,0.3,1,0.6,1.3,1.1
        c0.3,0.5,0.6,1,0.8,1.7c0.2,0.7,0.2,1.4,0.2,2.2c0,0.8-0.1,1.5-0.2,2.2c-0.2,0.7-0.4,1.2-0.8,1.7c-0.3,0.5-0.8,0.8-1.3,1.1
        c-0.5,0.3-1.2,0.4-2,0.4c-0.8,0-1.4-0.1-2-0.4c-0.5-0.3-1-0.6-1.3-1.1c-0.3-0.5-0.6-1-0.8-1.7C188.8,33.8,188.7,33.1,188.7,32.3z
         M198.6,37.4V27.1h1.1v9.3h4.7v1H198.6z M203.8,28.1v-1h7.2v1H208v9.3h-1.1v-9.3H203.8z M213.1,33.8h3.7l-1.8-5.5h-0.1L213.1,33.8z
         M210.7,37.4l3.6-10.3h1.3l3.6,10.3H218l-0.9-2.7h-4.3l-0.9,2.7H210.7z"/>
</svg>