<?xml version="1.0" standalone="no"?>
<!DOCTYPE svg PUBLIC "-//W3C//DTD SVG 20010904//EN"
 "http://www.w3.org/TR/2001/REC-SVG-20010904/DTD/svg10.dtd">
<svg version="1.0" xmlns="http://www.w3.org/2000/svg"
 width="574.000000pt" height="122.000000pt" viewBox="0 0 574.000000 122.000000"
 preserveAspectRatio="xMidYMid meet">

<g transform="translate(0.000000,122.000000) scale(0.100000,-0.100000)"
fill="#FFFFFF" stroke="none">
<path d="M283 953 l-23 -4 0 -296 0 -295 118 3 c94 3 125 8 156 25 56 29 79
63 83 126 5 69 -19 115 -75 143 -23 11 -41 22 -41 25 -1 3 13 13 29 22 37 21
70 74 70 113 0 48 -31 96 -75 119 -30 15 -62 21 -130 22 -49 1 -100 0 -112 -3z
m214 -69 c40 -30 51 -77 29 -119 -23 -43 -73 -65 -146 -65 l-60 0 0 98 c0 54
3 102 8 106 4 4 37 6 74 4 48 -3 75 -10 95 -24z m-30 -245 c50 -19 83 -59 83
-100 0 -87 -42 -122 -152 -128 l-78 -3 0 121 0 121 59 0 c33 0 72 -5 88 -11z"/>
<path d="M1374 942 c-91 -32 -150 -96 -179 -196 -19 -63 -17 -146 5 -219 14
-48 71 -112 124 -140 50 -25 189 -35 254 -18 38 11 42 15 36 34 -3 12 -7 23
-9 24 -1 2 -28 -2 -59 -8 -172 -31 -295 65 -296 230 0 83 15 132 56 180 55 63
146 87 262 67 26 -5 42 -4 42 2 0 6 3 17 6 25 13 35 -156 48 -242 19z"/>
<path d="M2045 953 c-38 -4 -45 -11 -150 -143 -60 -77 -113 -139 -117 -140 -5
0 -8 63 -8 140 l0 140 -30 0 -30 0 0 -167 c0 -93 -3 -225 -7 -295 l-6 -128 36
0 37 0 0 117 c0 113 1 118 27 145 15 15 32 28 37 28 6 0 27 -26 46 -57 19 -31
61 -96 92 -145 57 -87 58 -88 98 -88 30 0 39 3 33 13 -4 6 -56 83 -115 171
-93 135 -107 161 -96 175 7 9 49 59 93 111 85 100 110 131 104 128 -2 -1 -22
-3 -44 -5z"/>
<path d="M3628 952 c-34 -3 -44 -13 -131 -121 -52 -64 -101 -127 -108 -139 -8
-12 -19 -22 -26 -22 -10 0 -13 34 -13 140 l0 140 -30 0 -30 0 0 -295 0 -295
30 0 30 0 0 111 c0 104 2 112 26 145 15 19 32 34 39 34 7 0 55 -65 106 -145
l94 -145 42 0 41 0 -114 166 c-63 92 -114 171 -114 177 0 6 23 37 50 69 28 32
73 85 102 118 28 33 49 61 47 63 -2 1 -21 1 -41 -1z"/>
<path d="M3747 953 c-16 -4 -17 -26 -17 -298 l1 -294 56 -7 c73 -9 204 2 253
22 45 18 97 72 106 110 17 65 -17 146 -73 174 -15 8 -30 15 -32 17 -2 1 13 16
32 33 46 40 62 86 48 138 -23 83 -86 112 -243 111 -62 -1 -121 -3 -131 -6z
m240 -88 c12 -8 26 -27 29 -42 16 -64 -39 -113 -128 -113 l-48 0 0 84 c0 72 3
85 18 90 28 8 104 -3 129 -19z m24 -273 c32 -36 36 -60 14 -101 -20 -40 -115
-72 -164 -56 -19 6 -21 14 -21 102 l0 95 71 -4 c65 -3 74 -6 100 -36z"/>
<path d="M4375 948 c-42 -15 -102 -61 -131 -100 -39 -52 -57 -130 -52 -217 7
-123 55 -203 152 -253 63 -34 183 -31 252 4 59 31 98 73 127 138 29 65 30 217
1 280 -50 109 -131 160 -249 159 -38 0 -83 -5 -100 -11z m142 -79 c40 -15 73
-48 94 -94 23 -50 26 -177 4 -228 -32 -76 -103 -118 -175 -103 -46 9 -78 34
-108 85 -23 39 -27 57 -27 126 0 107 29 169 95 203 49 25 75 27 117 11z"/>
<path d="M4902 939 c-50 -25 -78 -58 -92 -108 -22 -84 31 -161 141 -203 112
-42 150 -105 95 -157 -35 -33 -97 -38 -169 -13 -32 10 -60 16 -62 12 -2 -4 -7
-25 -11 -47 l-6 -40 48 -14 c129 -37 262 -5 309 75 62 106 10 208 -135 265
-68 27 -110 61 -110 88 0 56 69 88 152 73 27 -6 53 -12 58 -15 11 -7 17 3 25
46 6 34 5 37 -26 48 -55 19 -168 14 -217 -10z"/>
<path d="M5332 939 c-50 -25 -78 -58 -92 -108 -22 -84 31 -161 141 -203 111
-42 145 -97 96 -153 -30 -35 -87 -42 -163 -20 -32 9 -61 17 -63 17 -3 -1 -10
-19 -17 -42 -12 -40 -12 -41 14 -51 139 -54 288 -22 341 72 53 93 -1 208 -116
248 -67 23 -122 60 -129 86 -15 61 57 102 148 85 27 -6 53 -12 58 -15 11 -7
17 3 25 46 6 34 5 37 -26 48 -55 19 -168 14 -217 -10z"/>
<path d="M867 943 c-2 -5 -24 -66 -47 -138 -23 -71 -64 -191 -90 -265 -70
-197 -67 -180 -28 -180 34 0 34 0 64 93 l30 92 113 0 113 0 29 -93 30 -92 35
0 c25 0 35 4 32 14 -2 8 -46 141 -98 295 l-95 281 -42 0 c-23 0 -44 -3 -46 -7z
m93 -194 c25 -77 43 -142 41 -145 -7 -6 -177 -5 -183 2 -4 3 6 42 22 87 15 45
36 108 45 140 9 31 19 57 23 57 4 0 27 -63 52 -141z"/>
<path d="M2160 655 l0 -295 160 0 160 0 0 30 0 30 -130 0 -130 0 0 265 0 265
-30 0 -30 0 0 -295z"/>
<path d="M2550 655 l0 -295 34 0 34 0 -1 295 -2 295 -32 0 -33 0 0 -295z"/>
<path d="M2730 655 l0 -295 31 0 31 0 -4 250 c-3 261 1 287 36 213 9 -21 74
-134 144 -250 l127 -213 37 0 37 0 1 295 0 295 -30 0 -30 0 -2 -247 -3 -248
-29 55 c-16 30 -83 142 -149 248 l-120 192 -39 0 -38 0 0 -295z"/>
</g>
</svg>
