<?xml version="1.0" encoding="utf-8"?>
<!-- Generator: Adobe Illustrator 22.0.1, SVG Export Plug-In . SVG Version: 6.00 Build 0)  -->
<svg version="1.1" id="Layer_1" xmlns="http://www.w3.org/2000/svg" xmlns:xlink="http://www.w3.org/1999/xlink" x="0px" y="0px"
	 viewBox="0 0 234.9 89.3" style="enable-background:new 0 0 234.9 89.3;" xml:space="preserve">
<style type="text/css">
	.st0{fill:#F04D25;}
	.st1{fill:#909295;}
</style>
<g>
	<path class="st0" d="M1.9,53.8c0-10.3,7.8-18.6,18-18.6c10.2,0,18.1,7.6,18.1,17.9c0,1.5-0.1,2.9-0.2,3.7H14c1,3.2,3.6,5.3,7.5,5.3
		c2.7,0,4.7-1,6.4-2.5c0.5-0.4,1.2-0.3,1.6,0.2l4.7,6.2c0.3,0.4,0.3,1.1-0.1,1.4c-2.6,2.7-7.3,4.9-13,4.9C10,72.4,1.9,64.1,1.9,53.8
		 M14.3,49.6h11.7c-0.9-3.1-3.1-4.5-5.8-4.5C17.3,45.1,15.2,46.8,14.3,49.6"/>
	<path class="st0" d="M53,71.3h-9.4c-0.6,0-1.2-0.5-1.2-1.2V37.5c0-0.6,0.5-1.2,1.2-1.2H53c0.6,0,1.2,0.5,1.2,1.2v3.1
		c1.8-3.4,4.9-5.4,9.1-5.4c8,0,13,5.7,13,15.2v19.7c0,0.6-0.5,1.2-1.2,1.2h-9.4c-0.6,0-1.2-0.5-1.2-1.2V52c0-3.5-2-5.8-5.1-5.8
		c-3.1,0-5.2,2.3-5.2,5.8v18.1C54.1,70.8,53.6,71.3,53,71.3"/>
	<path class="st0" d="M80.6,53.8c0-10.3,7.8-18.6,18-18.6c10.2,0,18.1,7.6,18.1,17.9c0,1.5-0.1,2.9-0.2,3.7H92.8
		c1,3.2,3.6,5.3,7.5,5.3c2.7,0,4.8-1.1,6.4-2.5c0.5-0.4,1.2-0.3,1.6,0.2L113,66c0.3,0.4,0.3,1-0.1,1.4c-2.6,2.7-7.3,4.9-13,4.9
		C88.8,72.4,80.6,64.1,80.6,53.8 M93,49.6h11.7c-0.9-3.1-3.1-4.5-5.8-4.5C96,45.1,94,46.8,93,49.6"/>
	<path class="st0" d="M131.1,71.3h-9.5c-0.6,0-1.1-0.5-1.1-1.1V37.5c0-0.6,0.5-1.1,1.1-1.1h9.5c0.6,0,1.1,0.5,1.1,1.1v4.3
		c1.7-3.8,4.5-6.5,8.3-6.5c2.1,0,3.8,0.5,5.1,1.4c0.4,0.3,0.6,0.9,0.3,1.4l-3.9,9c-0.3,0.6-1,0.9-1.6,0.5c-1.1-0.6-2.4-1-3.7-1
		c-2.8,0-4.6,2.3-4.6,5.8v17.8C132.2,70.8,131.7,71.3,131.1,71.3"/>
	<path class="st0" d="M208.3,53.7l5.5-16.6c0.2-0.5,0.6-0.8,1.1-0.8h9.5c0.8,0,1.3,0.8,1,1.5l-12.8,36.5c-3.2,9.2-8.6,12.4-15,12.4
		c-4.1,0-7.8-1.6-10.3-3.6c-0.4-0.3-0.5-0.9-0.2-1.4l4.1-7.2c0.3-0.6,1.1-0.7,1.7-0.3c1.5,1.1,3.1,1.6,4.7,1.6
		c2.1,0,3.6-1.1,4.7-3.8l-15.4-34c-0.3-0.7,0.2-1.6,1-1.6h10.5c0.5,0,0.9,0.3,1,0.7l6.8,16.7C206.7,54.7,208,54.7,208.3,53.7"/>
	<path class="st0" d="M181.1,36.3h-10.6v2.8c-2-2.3-5-3.6-8.9-3.6c-8.5,0-15.8,7-15.8,17.2c0,10.7,7.3,17.5,15.8,17.5
		c3.9,0,6.8-1.6,8.9-4.2v3.3c0,4.3-3.1,6.6-7.5,6.6c-3.8,0-6.5-1.4-8-2.5c-0.6-0.4-1.3-0.3-1.7,0.3l-4.6,7.1
		c-0.3,0.5-0.2,1.2,0.2,1.6c3.4,2.8,8.8,4.2,14.8,4.2c7.4,0,18.5-3,18.5-17.8V37.5C182.3,36.8,181.8,36.3,181.1,36.3 M164,59.2
		c-3.4,0-6.4-2.9-6.5-6.3c-0.1-3.8,2.7-6.7,6.5-6.7c3.7,0,6.5,2.8,6.5,6.5C170.5,56.4,167.7,59.3,164,59.2"/>
	<g>
		<path class="st0" d="M234.2,66.4c0,3.2-2.6,5.9-5.9,5.9c-3.3,0-5.8-2.6-5.8-5.8c0-3.2,2.5-5.9,5.8-5.9
			C231.7,60.6,234.2,63.2,234.2,66.4z M232.6,66.4c0-2.3-1.9-4.3-4.3-4.3c-2.4,0-4.3,2-4.3,4.3s1.8,4.3,4.2,4.3
			C230.8,70.7,232.6,68.7,232.6,66.4z M229.9,67.1l1.1,1.7h-1.8l-0.7-1.4h-0.8v1.4h-1.6v-5.3h2.4c1.4,0,2.3,0.7,2.3,1.9
			C230.8,66.2,230.5,66.8,229.9,67.1z M228.6,66.2c0.5,0,0.8-0.3,0.8-0.8s-0.3-0.8-0.8-0.8h-0.8v1.5H228.6z"/>
	</g>
	<g>
		<path class="st1" d="M69.8,2.8h14.2c0.4,0,0.7,0.3,0.7,0.7v3.3c0,0.4-0.3,0.7-0.7,0.7h-9.9v4.3h9.3c0.4,0,0.7,0.3,0.7,0.7v3.3
			c0,0.4-0.3,0.7-0.7,0.7h-9.3v4.7h10.5c0.4,0,0.7,0.3,0.7,0.7v3.3c0,0.4-0.3,0.7-0.7,0.7H69.8c-0.4,0-0.7-0.3-0.7-0.7V3.5
			C69.1,3.1,69.5,2.8,69.8,2.8z"/>
		<path class="st1" d="M96,3.5c0-0.4,0.3-0.7,0.7-0.7h6.9c7.4,0,13.7,3.2,13.7,11.6c0,7.5-6.1,11.5-13,11.5h-7.6
			c-0.4,0-0.7-0.3-0.7-0.7V3.5z M101.1,21.1h2.6c4.7,0,8.3-1.8,8.3-7c0-4.5-3.6-6.6-7.9-6.6h-3V21.1z"/>
		<path class="st1" d="M127.9,2.8h3.7c0.4,0,0.7,0.3,0.7,0.7v21.6c0,0.4-0.3,0.7-0.7,0.7h-3.7c-0.4,0-0.7-0.3-0.7-0.7V3.5
			C127.2,3.1,127.5,2.8,127.9,2.8z"/>
		<path class="st1" d="M155.4,7.8c-0.3,0.3-0.8,0.4-1.1,0.1c-0.9-0.7-2.1-1-3.1-1c-1.4,0-3.4,0.7-3.4,2.4c0,4.2,10.6,1.5,10.6,9.6
			c0,5.1-4.1,7.6-8.9,7.6c-2.7,0-5.2-0.7-7.2-2.5c-0.3-0.2-0.3-0.7-0.1-0.9l2.6-2.8c0.3-0.4,0.9-0.4,1.2,0c1,1,2.4,1.5,3.8,1.5
			c1.7,0,3.5-0.8,3.5-2.4c0-4.2-10.8-2-10.8-9.6c0-4.9,4.3-7.5,8.8-7.5c2.4,0,4.7,0.6,6.5,2c0.3,0.2,0.3,0.7,0.1,0.9L155.4,7.8z"/>
		<path class="st1" d="M179.8,2.2c7.2,0,12.4,4.7,12.4,12.1s-5.2,12.1-12.4,12.1c-7.2,0-12.4-4.7-12.4-12.1S172.6,2.2,179.8,2.2z
			 M179.8,21.7c4.3,0,7.2-3.1,7.2-7.4c0-4.3-2.8-7.4-7.2-7.4c-4.3,0-7.2,3.1-7.2,7.4C172.6,18.6,175.5,21.7,179.8,21.7z"/>
		<path class="st1" d="M202.9,2.8h5.6c0.3,0,0.7,0.2,0.8,0.5l9.5,15.6h0.1V3.5c0-0.4,0.3-0.7,0.7-0.7h3.7c0.4,0,0.7,0.3,0.7,0.7
			v21.6c0,0.4-0.3,0.7-0.7,0.7H218c-0.3,0-0.7-0.2-0.8-0.5l-9.8-15.9h-0.1v15.7c0,0.4-0.3,0.7-0.7,0.7h-3.7c-0.4,0-0.7-0.3-0.7-0.7
			V3.5C202.2,3.1,202.5,2.8,202.9,2.8z"/>
	</g>
</g>
</svg>
