<svg version="1.1" xmlns="http://www.w3.org/2000/svg" xmlns:xlink="http://www.w3.org/1999/xlink" x="0px" y="0px" viewBox="0 0 265.6 40" enable-background="new 0 0 265.6 40" xml:space="preserve">
    <path fill="#FFFFFF" d="M33.6,8.4C32.1,8.5,31,9.7,31,11.1c0,0.2,0,0.3,0,0.4l2.6,14.8
        c0.3,1.9,1.9,3.3,3.8,3.3h0c1.6-2.9,2.5-6.2,2.5-9.7c0-4.4-1.4-8.4-3.8-11.7L33.6,8.4z M20.8,30.6v-0.8l3-0.1H24
        c1.5,0,2.7-1.2,2.7-2.7c0-0.2,0-0.4-0.1-0.6l-2.7-15.1l-7,19.2h-1.3h0h0l-3.3-16h-0.1L7.8,31H3.7L10,7.4h4.5L18,24.1l6.1-16.6h4.2
        l7.3,0C31.9,2.9,26.3,0,20,0C9,0,0,9,0,20c0,11,9,20,20,20c7.1,0,13.4-3.8,16.9-9.4H20.8z M68.8,30.6h-3.3v-18h-0.1l-7.1,8.9h-0.5
        l-7.1-8.9h-0.1v18h-3.3V7.5h3.1L58,17l7.7-9.5h3.1V30.6z M88.9,10.5h-9.8v7h9.5v3h-9.5v7.2h10.1v3H75.8V7.5h13.1V10.5z M98.1,27.6
        h5.3c7.5,0,9.3-5.7,9.3-8.6c0-4.6-2.9-8.6-9.4-8.6h-5.1V27.6z M94.8,7.5h9c8.5,0,12.3,6.1,12.3,11.6c0,5.9-4.6,11.6-12.3,11.6h-9
        V7.5z M122.2,30.6h3.3V7.5h-3.3V30.6z M137.7,20.8h7.2l-3.7-8.4L137.7,20.8z M152.8,30.6h-3.4l-3.1-6.8h-9.8l-2.9,6.8h-3.4l9.9-23.2
        h2.3L152.8,30.6z M178.8,30.6h-3.3v-18h-0.1l-7.1,8.9h-0.5l-7.1-8.9h-0.1v18h-3.3V7.5h3.1L168,17l7.7-9.5h3.1V30.6z M197.2,27.9
        c5.2,0,9-3.8,9-8.8c0-5.1-3.8-8.8-9-8.8c-5.2,0-9,3.7-9,8.8C188.2,24.1,192.1,27.9,197.2,27.9 M197.2,7.2c7.6,0,12.4,5.4,12.4,11.9
        c0,6.2-4.7,11.9-12.5,11.9c-7.6,0-12.3-5.6-12.3-11.9C184.8,12.7,189.7,7.2,197.2,7.2 M237.1,30.6h-2.8l-15.5-17.8v17.8h-3.1V7.5
        h2.6L234,25.4V7.5h3.1V30.6z M247.6,27.6h5.3c7.5,0,9.3-5.7,9.3-8.6c0-4.6-2.9-8.6-9.4-8.6h-5.1V27.6z M244.3,7.5h9
        c8.5,0,12.3,6.1,12.3,11.6c0,5.9-4.6,11.6-12.3,11.6h-9V7.5z"/>
</svg>