<svg version="1.1" xmlns="http://www.w3.org/2000/svg" xmlns:xlink="http://www.w3.org/1999/xlink" x="0px" y="0px" viewBox="0 0 427.1 40" enable-background="new 0 0 427.1 40" xml:space="preserve">
    <path fill="#FFFFFF" d="M145.7,38.6h0.3c4.3-0.1,8.1-2.5,10.1-5.9l0.1-0.1l10.5-18.1l3.5-6l4-7l0.8-1.4l18.8,32.6
        c2.1,3.5,6,5.9,10.5,5.9l0,0v0.6h-27.1v-0.2v-0.4h0.2c2.9-0.1,5.2-2.5,5.2-5.4c0-0.9-0.2-1.8-0.6-2.5l-3.4-5.9l-8.1,13.9l-0.9,1.4
        l-8.6-14.7l-2.8,4.8c-0.6,0.9-0.9,1.9-0.9,3.1c0,2.7,2,5,4.7,5.4c0.1,0,0.2,0.1,0.3,0.1h0.3v0.6h-17v-0.2L145.7,38.6L145.7,38.6z
         M170.1,9.8l-3.6,6.2l8.2,14.2l3.6-6.2L170.1,9.8z M287.2,29.5c0,0,1.4,0.1,2.2-0.1c1.4-0.2,2.6-1,2.7-2.7V13.7c0-1.6-1.3-2.8-2.9-3
        c-0.8-0.1-2.1-0.1-2.1-0.1V9.8h15.7c5.6,0,10.2,4.6,10.2,10.2c0,5.6-4.6,10.2-10.3,10.2h-15.7L287.2,29.5L287.2,29.5z M298.8,29.2
        h1.4c2.8,0,5.1-1.8,5.9-4.4c0,0,0.1-0.6,0.2-0.7c0.3-1.3,0.4-2.6,0.4-4c0-1.4-0.2-2.9-0.5-4.2c-0.1-0.2-0.1-0.3-0.1-0.5
        c-0.7-2.6-3.2-4.5-6-4.5h-1.3c-0.4,0-0.7,0.4-0.7,0.7v16.9C298.2,28.9,298.5,29.2,298.8,29.2z M318.9,22.7h7.8l-4.2-7.3L318.9,22.7z
         M327.3,23.8h-8.7l-1.3,2.7c-0.9,2.1,0.8,2.8,1.7,2.9c0.7,0.1,1.9,0.1,1.9,0.1v0.8h-10.3v-0.8c0,0,0.9,0,1.4-0.1
        c1.8-0.3,3.2-1.2,3.9-2.8c3.5-7.1,8.9-18.2,8.9-18.2l10.6,18.4c0.8,1.6,2.3,2.3,4.3,2.5c0.7,0.1,1.8,0.1,1.8,0.1v0.8h-17.2v-0.8
        c0,0,1.8,0.1,2.8-0.1c1.1-0.2,2.1-0.9,2.1-2c0-0.5-0.3-0.9-0.5-1.3L327.3,23.8z M397.4,11.5v8c1.7,0,2.9-0.1,3.6-0.4
        c1.2-0.7,1.8-2,1.8-3.9c0-1.8-0.6-3.1-1.7-3.7c-0.6-0.3-1.4-0.5-2.4-0.5h-0.9C397.6,11,397.4,11.2,397.4,11.5z M386.4,29.5
        c0,0,1.7,0,2.7-0.1c1.3-0.1,2.2-0.9,2.2-2.7V13.2c0-1.1-0.5-2.3-1.8-2.5c-0.6-0.1-3.1-0.1-3.1-0.1V9.8h14.7c1.8,0,3.9,0.3,4.9,0.8
        c1,0.5,2.9,1.8,2.9,4c0.1,2.1-0.5,2.8-1.5,3.6c-1,0.8-2.8,1.3-4.5,1.6c6.6,0.1,5.6,4,6.6,7c0.7,2.1,2.5,2.6,4.7,2.6v0.8h-6.6
        c-7.8,0-2.5-9.8-8.5-9.8h-1.6v6.6c0,1.4,1,2.2,2.2,2.4c1.2,0.2,1.4,0.1,2.6,0.1v0.8h-15.8L386.4,29.5z M335.5,29.5
        c0,0,1.4,0.1,2.2-0.1c1.4-0.2,2.6-1,2.7-2.7V13.7c0-1.6-1.3-2.8-2.9-3c-0.8-0.1-2.1-0.1-2.1-0.1V9.8h15.7c5.6,0,10.2,4.6,10.2,10.2
        c0,5.6-4.6,10.2-10.3,10.2h-15.7L335.5,29.5L335.5,29.5z M347.2,29.2h1.4c2.8,0,5.1-1.8,5.9-4.4c0,0,0.1-0.6,0.2-0.7
        c0.3-1.3,0.4-2.6,0.4-4c0-1.4-0.2-2.9-0.5-4.2c-0.1-0.2-0.1-0.3-0.1-0.5c-0.7-2.6-3.2-4.5-6-4.5h-1.3c-0.4,0-0.7,0.4-0.7,0.7v16.9
        C346.5,28.9,346.8,29.2,347.2,29.2z M238.9,20.1c0-5.8,4.4-10.5,10.1-11c0.5-0.1,1.1-0.1,1.7-0.1c0.6,0,1.1,0.1,1.7,0.1
        c5.6,0.5,10.1,5.2,10.1,11c0,5.5-4,10-9,10.9c-0.9,0.2-1.8,0.2-2.7,0.2s-1.8-0.1-2.7-0.2C243,30,238.9,25.5,238.9,20.1 M253.4,28.7
        c0.3-0.5,0.6-1,0.9-1.6c1.1-2.1,1.7-4.5,1.7-7.1s-0.6-5-1.8-7.1c-0.3-0.5-0.6-1.1-0.9-1.6c-0.6-0.7-1.6-1.4-2.6-1.4
        c-1,0-2,0.5-2.6,1.3c-0.5,0.6-0.7,1.1-1,1.7c-1.1,2-1.7,4.5-1.7,7.1c0,2.6,0.6,5,1.7,7.1c0.3,0.5,0.6,1.2,1,1.6
        c0.6,0.8,1.6,1.3,2.6,1.3C251.8,30.2,252.7,29.6,253.4,28.7 M427,29.5v0.8h-15.9v-0.8c0,0,1.6,0,2.6-0.1c1.3-0.1,2.4-1,2.4-2.3
        c0-0.1,0-14,0-14c0-1.3-1.2-2.2-2.5-2.3c-1-0.1-2.4-0.1-2.4-0.1V9.8h15.9v0.8c0,0-1.6-0.1-2.5,0.1c-1.3,0.2-2.4,1-2.4,2.2v14
        c0,1.3,1.4,2.1,2.8,2.3C425.8,29.5,427,29.5,427,29.5 M237.5,10.7c0,0-1.4,0-2.3,0.1c-1.3,0.1-2.5,0.9-2.2,2.5
        c0.2,0.8,2.3,13.2,2.3,13.2c0.2,1.7,1.7,2.7,3.4,2.8c1,0.1,2.4,0.1,2.4,0.1v0.8h-17v-0.8c0,0,1.7,0,2.8-0.1c1.3-0.1,2.5-1.2,2.3-2.8
        c-0.1-0.3-2.4-13.3-2.4-13.3l-6.6,18.2l-6.6-18.2c0,0-2.3,13.2-2.4,13.5c-0.2,1.3,0.9,2.4,2.3,2.6c1,0.1,2.4,0.1,2.4,0.1v0.7h-11.5
        v-0.8c0,0,1.5,0,2.4-0.1c1.7-0.2,3-1,3.3-2.6c0,0,2.2-12.6,2.4-13.6c0.2-1.3-0.9-2.2-2.3-2.4c-1-0.1-2.4-0.1-2.4-0.1V9.8h11.1
        l4,11.2L227,9.8h10.6L237.5,10.7L237.5,10.7z M363.5,20.1c0-5.8,4.4-10.5,10.1-11c0.5-0.1,1.1-0.1,1.7-0.1c0.6,0,1.1,0.1,1.7,0.1
        c5.6,0.5,10.1,5.2,10.1,11c0,5.5-4,10-9,10.9c-0.9,0.2-1.8,0.2-2.7,0.2s-1.8-0.1-2.7-0.2C367.5,30,363.5,25.6,363.5,20.1
         M377.9,28.7c0.3-0.5,0.6-1,0.9-1.6c1.1-2.1,1.7-4.5,1.7-7.1s-0.6-5-1.7-7.1c-0.3-0.5-0.6-1.1-0.9-1.6c-0.6-0.7-1.6-1.4-2.6-1.4
        c-1,0-2,0.5-2.6,1.3c-0.5,0.6-0.7,1.1-1,1.7c-1.1,2-1.7,4.5-1.7,7.1c0,2.6,0.6,5,1.7,7.1c0.3,0.5,0.6,1.2,1,1.6
        c0.6,0.8,1.6,1.3,2.6,1.3C376.4,30.2,377.3,29.6,377.9,28.7 M261.7,29.5c0,0,1.2,0,1.9-0.1c1.6-0.2,3-1.3,3-2.9V13.1
        c0-1.3-1.2-2.2-2.4-2.3c-0.9-0.1-2.5-0.1-2.5-0.1V9.9h10.8l10,11.3v-8.2c0-1.3-1-2.2-2.4-2.3c-1-0.1-2.6-0.1-2.6-0.1V9.9h10.8v0.8
        c0,0-1.6,0-2.4,0.1c-1.3,0.1-2.4,1-2.4,2.3v18.5l-15.9-18.1v12.8c0,1.7,1.4,2.7,3.1,3c0.7,0.1,1.8,0.1,1.8,0.1v0.8h-10.8V29.5z
         M23.5,21.2v-0.7H11.9v0.7c0,0,3.1-0.2,3.1,3c0,0,0,2.8,0,4.3c0,0.9-0.5,1.4-1.6,1.4c-3.3,0.1-6.3-2.3-6.8-9.8
        c-0.5-7.3,3.7-11.2,9-8.5c1.7,1.2,2.8,2.4,3.7,7.1h1c0,0-0.5-8.8-0.5-8.8h-1.3c-0.3,2.6-1.7,1-2.8,0.3c-1.7-1.1-4-1.5-6.4-1.1
        C-1.9,10.9-3.5,26.8,7.3,30.3c3.2,1,4.6,1.2,7.4,0.6c2.6-0.5,3.9-1.3,6-3.3v-3.3C20.8,21,23.5,21.2,23.5,21.2 M37.4,19.1
        c-0.7,0.4-1.9,0.4-3.6,0.4v-8c0-0.3,0.2-0.5,0.5-0.5h0.9c1,0,1.8,0.2,2.4,0.5c1.1,0.6,1.7,2,1.7,3.7C39.3,17.1,38.6,18.4,37.4,19.1
         M45.8,26.8c-1-3-0.1-6.9-6.6-7c1.7-0.2,3.6-0.7,4.5-1.6c1-0.8,1.6-1.6,1.5-3.6c-0.1-2.2-2-3.5-2.9-4c-1-0.5-3.1-0.8-4.9-0.8H22.8
        v0.8c0,0,2.4,0,3.1,0.1c1.3,0.2,1.8,1.4,1.8,2.5v13.4c0,1.8-0.8,2.5-2.2,2.7c-1,0.1-2.7,0.1-2.7,0.1v0.8h15.8v-0.8
        c-1.2,0-1.5,0.1-2.6-0.1c-1.3-0.2-2.2-0.9-2.2-2.4v-6.6h1.6c6,0,0.7,9.8,8.5,9.8h6.5v-0.8C48.3,29.5,46.6,29,45.8,26.8 M89.8,20
        c-1.1,0.6-2.2,0.5-3.8,0.5v-9v-0.1c0-0.3,0.2-0.5,0.5-0.5h0.9c1,0,1.7,0.2,2.4,0.5c1.1,0.6,2.2,2.5,2.2,4.3
        C92,17.6,91.1,19.3,89.8,20 M94.9,10.9c-1.1-0.6-3.6-0.9-5.4-0.9H75h-9v0.9c0,0,1.8,0,2.7,0.1c1.2,0.1,1.9,1.1,1.9,2.4v11.3
        c0,4.4-7.5,6.8-11.2,3.5c-1.2-1.5-1.2-4-1.2-7.8v-7.3c0-1.3,1-2.1,2.3-2.2c0.9-0.1,2.6-0.1,2.6-0.1V9.9H47.4v0.9c0,0,1.6,0,2.6,0.1
        c1.3,0.1,2.3,0.9,2.3,2.2v7.4c0,5.3-0.1,8.7,4.7,10c4.4,1.2,6.9,1.2,10.8-0.1c2.5-0.8,4.3-2.9,4.3-5.6V13.4c0-1.3,0.9-2.3,2.2-2.4
        c1-0.1,2.7-0.1,2.7-0.1v-0.1c0.2,0,0.3,0,0.5,0.1c1.3,0.1,2.4,1.4,2.4,2.5v13.4c0,1.8-1.4,2.6-2.2,2.8c-0.9,0.1-2.7,0.1-2.7,0.1v0.8
        h15.9v-0.8c0,0-1.8,0-2.8-0.1c-1.1-0.1-2.2-1-2.2-2.4v-5.5h1.4c4,0,6.8-0.9,8-1.8c1.2-0.9,2.1-1.8,2.2-3.9
        C97.6,13.9,97.1,12.2,94.9,10.9 M111.8,20c-1.1,0.6-2.2,0.5-3.8,0.5v-9v-0.1c0-0.3,0.2-0.5,0.5-0.5h0.9c1,0,1.7,0.2,2.4,0.5
        c1.1,0.6,2.2,2.5,2.2,4.3C114,17.6,113.2,19.3,111.8,20 M116.9,10.8c-1.1-0.6-3.6-0.9-5.4-0.9H97.1v0.7c1.2,0,1.5,0,2.5,0.1
        c1.3,0.1,2.4,1.4,2.4,2.5v13.4c0,1.8-1.4,2.6-2.2,2.8c-0.9,0.1-2.7,0.1-2.7,0.1v0.8H113v-0.7c0,0-1.8,0-2.8-0.1
        c-1.1-0.1-2.2-1-2.2-2.4v-5.5h1.4c4,0,6.8-0.9,8-1.8c1.2-0.9,2.1-1.8,2.2-4C119.6,13.9,119.1,12.1,116.9,10.8 M136.7,27.2
        c-0.3,0.5-0.6,1.1-0.9,1.6c-0.6,0.9-1.6,1.4-2.6,1.4c-1.1,0-2-0.6-2.6-1.3c-0.4-0.5-0.7-1.1-1-1.6c-1.1-2.1-1.7-4.5-1.7-7.1
        c0-2.5,0.7-5.1,1.7-7.1c0.3-0.6,0.5-1,1-1.7c0.6-0.8,1.5-1.3,2.6-1.3s2.1,0.6,2.6,1.4c0.3,0.5,0.7,1,0.9,1.6
        c1.1,2.1,1.8,4.5,1.8,7.1C138.4,22.6,137.7,25,136.7,27.2 M134.8,9.1C134.2,9,133.7,9,133.1,9c-0.6,0-1.1,0.1-1.7,0.1
        c-5.6,0.5-10.1,5.2-10.1,11c0,5.5,4,10,9,10.9c0.9,0.2,1.8,0.2,2.7,0.2c0.9,0,1.8-0.1,2.7-0.2c5-0.9,9-5.4,9-10.9
        C144.8,14.3,140.4,9.6,134.8,9.1"/>
</svg>