<svg version="1.1" xmlns="http://www.w3.org/2000/svg" xmlns:xlink="http://www.w3.org/1999/xlink" x="0px" y="0px" viewBox="0 0 30 30" style="enable-background:new 0 0 30 30;" xml:space="preserve">
    <path fill="#FFFFFF" d="M14.7,26c-0.1,0-0.2,0-0.3,0c-7.7-0.2-12.9-7.5-13.2-7.9c-0.2-0.3-0.2-0.7,0-1.1C1.3,16.8,5.7,9.6,13.9,9
        c0.5,0,1,0.4,1.1,0.9c0,0.6-0.4,1-0.9,1.1c-6,0.5-9.7,4.9-10.8,6.5c1.3,1.6,5.6,6.3,11.2,6.5c4.1,0.1,8-2.3,11.8-7
        c0.3-0.4,1-0.5,1.4-0.2c0.4,0.3,0.5,1,0.2,1.4C23.7,23.4,19.3,26,14.7,26z M21.9,19l0.2-1.2h-2.9c-2.8,0-5-2.2-5-5V9.9L13,10.1
        c-3.5,0.7-6,3.8-6,7.4c0,4.1,3.4,7.5,7.5,7.5C18.1,25,21.2,22.5,21.9,19z M12.2,12.8c0,3.9,3.1,7,7,7h0.3c-0.9,1.9-2.8,3.2-5,3.2
        c-3,0-5.5-2.5-5.5-5.5c0-2.2,1.3-4.1,3.2-5V12.8z M30,13v-3c0-3.3-2.7-6-6-6h-5c-3.3,0-6,2.7-6,6v3c0,3.3,2.7,6,6,6h5
        C27.3,19,30,16.3,30,13z M24,6c2.2,0,4,1.8,4,4v3c0,2.2-1.8,4-4,4h-5c-2.2,0-4-1.8-4-4v-3c0-2.2,1.8-4,4-4H24z M12,17.5
        c0,1.4,1.1,2.5,2.5,2.5s2.5-1.1,2.5-2.5S15.9,15,14.5,15S12,16.1,12,17.5z M22.5,14V9c0-0.6-0.4-1-1-1s-1,0.4-1,1v5c0,0.6,0.4,1,1,1
        S22.5,14.6,22.5,14z M25,11.5c0-0.6-0.4-1-1-1h-5c-0.6,0-1,0.4-1,1s0.4,1,1,1h5C24.6,12.5,25,12.1,25,11.5z"/>
</svg>