<svg version="1.1" xmlns="http://www.w3.org/2000/svg" xmlns:xlink="http://www.w3.org/1999/xlink" x="0px" y="0px" viewBox="0 0 30 30" style="enable-background:new 0 0 30 30;" xml:space="preserve">
    <path fill="#FFFFFF" d="M4,28c-0.3,0-0.5-0.1-0.7-0.3c-0.4-0.4-0.4-1,0-1.4L25.8,3.7c0.4-0.4,1-0.4,1.4,0s0.4,1,0,1.4L4.7,27.7
        C4.5,27.9,4.3,28,4,28z M12,7c0-2.8-2.2-5-5-5S2,4.2,2,7s2.2,5,5,5S12,9.8,12,7z M10,7c0,1.7-1.3,3-3,3S4,8.7,4,7s1.3-3,3-3
        S10,5.3,10,7z M28,25c0-2.8-2.2-5-5-5s-5,2.2-5,5s2.2,5,5,5S28,27.8,28,25z M26,25c0,1.7-1.3,3-3,3s-3-1.3-3-3s1.3-3,3-3
        S26,23.3,26,25z"/>
</svg>