<svg version="1.1" xmlns="http://www.w3.org/2000/svg" xmlns:xlink="http://www.w3.org/1999/xlink" x="0px" y="0px" viewBox="0 0 38 60" style="enable-background:new 0 0 38 60;" xml:space="preserve">
    <path fill="#FFFFFF" class="st0" d="M19,60C8.5,60,0,51.5,0,41V19C0,8.5,8.5,0,19,0s19,8.5,19,19v22C38,51.5,29.5,60,19,60z
         M19,4C10.7,4,4,10.7,4,19v22c0,8.3,6.7,15,15,15s15-6.7,15-15V19C34,10.7,27.3,4,19,4z M21,25V15c0-1.1-0.9-2-2-2s-2,0.9-2,2v10
        c0,1.1,0.9,2,2,2S21,26.1,21,25z"/>
</svg>