<svg version="1.1" xmlns="http://www.w3.org/2000/svg" xmlns:xlink="http://www.w3.org/1999/xlink" x="0px" y="0px" viewBox="0 0 21 25" enable-background="new 0 0 21 25" xml:space="preserve">
    <path fill="#FFFFFF" d="M20.5,21.4c0,1.7-1.4,3.1-3.1,3.1c-1.7,0-3.1-1.4-3.1-3.1c0-0.2,0-0.4,0.1-0.6L5.5,15
        c-0.5,0.4-1.2,0.6-1.8,0.6c-1.7,0-3.1-1.4-3.1-3.1s1.4-3.1,3.1-3.1c0.7,0,1.3,0.2,1.8,0.6l8.9-5.8c0-0.2-0.1-0.4-0.1-0.6
        c0-1.7,1.4-3.1,3.1-3.1c1.7,0,3.1,1.4,3.1,3.1s-1.4,3.1-3.1,3.1c-0.8,0-1.5-0.3-2.1-0.8l-8.7,5.7c0.1,0.3,0.1,0.6,0.1,0.9
        s-0.1,0.6-0.1,0.9l8.7,5.7c0.6-0.5,1.3-0.8,2.1-0.8C19.1,18.3,20.5,19.7,20.5,21.4z"/>
</svg>