<svg version="1.1" xmlns="http://www.w3.org/2000/svg" xmlns:xlink="http://www.w3.org/1999/xlink" x="0px" y="0px" viewBox="0 0 38 60" enable-background="new 0 0 38 60" xml:space="preserve">
    <path fill="#FFFFFF" d="M30.2,0H7.8C4.2,0,1.3,2.8,1.3,6.5v47c0,3.7,2.8,6.5,6.5,6.5h22.4c3.7,0,6.5-2.8,6.5-6.5v-47
        C36.7,2.8,33.8,0,30.2,0z M4.4,8.9h29.3v35H4.4V8.9z M7.8,3.1h22.4c1.6,0,3.1,1.3,3.4,2.8H4.4C4.7,4.3,6.2,3.1,7.8,3.1z M30.2,56.9
        H7.8c-1.8,0-3.5-1.6-3.5-3.5v-6.3h29.3v6.3C33.6,55.3,32,56.9,30.2,56.9z M19,47.8c-2.4,0-4.5,2-4.5,4.5c0,2.4,2,4.5,4.5,4.5
        s4.5-2,4.5-4.5C23.5,49.8,21.4,47.8,19,47.8z M19,53.5c-0.8,0-1.4-0.6-1.4-1.4c0-0.8,0.6-1.4,1.4-1.4s1.4,0.6,1.4,1.4
        C20.4,52.9,19.8,53.5,19,53.5z"/>
</svg>