<svg version="1.1" xmlns="http://www.w3.org/2000/svg" xmlns:xlink="http://www.w3.org/1999/xlink" x="0px" y="0px" viewBox="0 0 30 30" style="enable-background:new 0 0 30 30;" xml:space="preserve">
    <path fill="#FFFFFF" d="M23,30H7c-2.8,0-5-2.2-5-5V10c0-2.8,2.2-5,5-5h16c2.8,0,5,2.2,5,5v15C28,27.8,25.8,30,23,30z M7,7
        c-1.7,0-3,1.3-3,3v15c0,1.7,1.3,3,3,3h16c1.7,0,3-1.3,3-3V10c0-1.7-1.3-3-3-3H7z M22.5,1.5c0-0.6-0.4-1-1-1h-13c-0.6,0-1,0.4-1,1
        s0.4,1,1,1h13C22.1,2.5,22.5,2.1,22.5,1.5z M15,25c-3.9,0-7-3.1-7-7c0-3.9,3.1-7,7-7c3.9,0,7,3.1,7,7C22,21.9,18.9,25,15,25z M15,13
        c-2.8,0-5,2.2-5,5s2.2,5,5,5s5-2.2,5-5S17.8,13,15,13z"/>
</svg>