<svg version="1.1" xmlns="http://www.w3.org/2000/svg" xmlns:xlink="http://www.w3.org/1999/xlink" x="0px" y="0px" viewBox="0 0 30 30" style="enable-background:new 0 0 30 30;" xml:space="preserve">
    <path fill="#FFFFFF" d="M13,28C5.7,28,1.7,23,1,13.1c0-0.3,0.1-0.5,0.3-0.8C1.5,12.1,1.7,12,2,12h22c0.3,0,0.5,0.1,0.7,0.3
        c0.2,0.2,0.3,0.5,0.3,0.8C24.3,23,20.3,28,13,28z M3.1,14c0.8,8.1,4.1,12,9.9,12c5.8,0,9.1-3.9,9.9-12H3.1z M28.6,21.8
        c0.9-0.8,1.4-1.9,1.4-3.4c0-1.7-0.5-3-1.5-3.8c-1.1-0.9-2.7-1.1-4.8-0.6c-0.5,0.1-0.9,0.7-0.8,1.2c0.1,0.5,0.7,0.9,1.2,0.8
        c1-0.2,2.3-0.4,3.1,0.2c0.5,0.4,0.7,1.1,0.7,2.2c0,0.9-0.2,1.5-0.7,1.9c-0.9,0.7-2.6,0.9-5.1,0.5c-0.5-0.1-1.1,0.3-1.1,0.8
        c-0.1,0.5,0.3,1.1,0.8,1.1c1,0.2,1.9,0.2,2.7,0.2C26.3,23,27.7,22.6,28.6,21.8z M9.2,10.4c1.1-2.3,1.1-2.6,0-4.9
        C9.1,5.3,8.9,4.9,9,4.6C9.1,4.3,9.5,4,9.8,3.9c0.5-0.2,0.7-0.8,0.4-1.3C10,2.1,9.4,1.9,8.9,2.1C8,2.6,7.4,3.2,7.1,3.9S7,5.5,7.4,6.4
        C8.2,8,8.2,8,7.4,9.6c-0.2,0.5,0,1.1,0.4,1.3C8,11,8.2,11,8.3,11C8.7,11,9.1,10.8,9.2,10.4z M14.2,10.4c1.1-2.3,1.1-2.6,0-4.9
        c-0.1-0.3-0.3-0.7-0.2-1c0.1-0.3,0.5-0.5,0.7-0.7c0.5-0.2,0.7-0.8,0.4-1.3c-0.2-0.5-0.8-0.7-1.3-0.4c-0.9,0.5-1.5,1.1-1.8,1.8
        S12,5.5,12.4,6.4c0.8,1.6,0.8,1.6,0,3.1c-0.2,0.5,0,1.1,0.4,1.3C13,11,13.2,11,13.3,11C13.7,11,14.1,10.8,14.2,10.4z M19.2,10.4
        c1.1-2.3,1.1-2.6,0-4.9c-0.4-0.8-0.3-1.2,0.6-1.7c0.5-0.2,0.7-0.8,0.4-1.3s-0.8-0.7-1.3-0.4C17,3,16.5,4.6,17.4,6.4
        c0.8,1.6,0.8,1.6,0,3.1c-0.2,0.5,0,1.1,0.4,1.3C18,11,18.2,11,18.3,11C18.7,11,19.1,10.8,19.2,10.4z"/>
</svg>